<svg width="14" height="12" viewBox="0 0 14 12" fill="none" xmlns="http://www.w3.org/2000/svg">
<path d="M13.4621 9.18492C13.4891 9.37283 13.4262 9.53621 13.2738 9.67506L11.4844 11.2925C11.4037 11.3742 11.2983 11.4437 11.1682 11.5008C11.0382 11.558 10.9104 11.5947 10.7849 11.6111C10.7759 11.6111 10.7489 11.6132 10.7041 11.6172C10.6593 11.6213 10.601 11.6234 10.5292 11.6234C10.3588 11.6234 10.0829 11.5968 9.70173 11.5437C9.32053 11.4906 8.85415 11.3599 8.30258 11.1516C7.75087 10.9433 7.12528 10.6308 6.42569 10.2142C5.72611 9.79766 4.98163 9.22579 4.19232 8.49872C3.56447 7.93506 3.04424 7.3959 2.63165 6.88127C2.21906 6.36661 1.8872 5.89076 1.63605 5.45372C1.38489 5.01667 1.19653 4.62048 1.07096 4.26512C0.945392 3.90977 0.860183 3.60343 0.815336 3.34611C0.770489 3.08878 0.75255 2.8866 0.76152 2.73956C0.770489 2.59251 0.774974 2.51082 0.774974 2.49449C0.792912 2.38012 0.833275 2.26371 0.89606 2.14526C0.958846 2.02681 1.03509 1.93082 1.12478 1.8573L2.91417 0.22758C3.03974 0.113213 3.18325 0.0560303 3.3447 0.0560303C3.4613 0.0560303 3.56445 0.0866641 3.65414 0.147932C3.74383 0.2092 3.82007 0.284763 3.88286 0.374622L5.32244 2.86209C5.40316 2.9928 5.42559 3.13575 5.38971 3.29097C5.35383 3.44618 5.27759 3.57688 5.16099 3.68308L4.50174 4.2835C4.48381 4.29984 4.46811 4.32639 4.45465 4.36315C4.4412 4.39991 4.43447 4.43055 4.43447 4.45505C4.47035 4.6266 4.55108 4.82266 4.67665 5.04322C4.78428 5.23928 4.95021 5.47822 5.17445 5.76006C5.39868 6.04189 5.71709 6.36659 6.12968 6.73419C6.5333 7.11001 6.89208 7.40201 7.20601 7.61036C7.51987 7.81859 7.78231 7.97182 7.99309 8.06985C8.20387 8.16788 8.36532 8.2271 8.47741 8.24746L8.64555 8.27812C8.66348 8.27812 8.6927 8.27197 8.73302 8.25974C8.77338 8.24746 8.80253 8.23319 8.82049 8.21683L9.58735 7.50612C9.74889 7.37544 9.93716 7.31009 10.1524 7.31009C10.305 7.31009 10.426 7.33457 10.5157 7.38361H10.5291L13.1257 8.78051C13.3141 8.88679 13.4262 9.02154 13.4621 9.18492Z" fill="currentColor"/>
</svg>
