<svg width="125" height="44" viewBox="0 0 125 44" fill="none" xmlns="http://www.w3.org/2000/svg">
<path d="M77.6409 0.325541C77.5992 0.324628 77.558 0.327184 77.518 0.33321L74.9359 9.86446L76.6761 0.314586C76.6344 0.30491 76.5899 0.29925 76.543 0.297971L74.7584 0.252692C74.5869 0.903226 75.4103 0.668062 75.1017 1.99798L73.2829 10.0082C72.9397 9.99957 72.5968 10.0763 72.2878 10.2106C72.7683 10.4792 73.0086 10.9408 72.9397 11.4798L72.1164 15.1885L71.2587 11.4372C71.1898 10.8948 71.4642 10.4462 71.9449 10.2021C71.6361 10.0522 71.2928 9.95794 70.9497 9.94918L69.1311 1.8468C68.8221 0.501184 69.6115 0.777428 69.4742 0.11886L67.6554 0.0732148C67.6196 0.0723019 67.585 0.074858 67.5519 0.080518L69.3418 9.7352L66.7101 0.0989587L66.7193 0.0671896C66.6665 0.0542264 66.6118 0.046558 66.5573 0.04528L64.7729 0C64.9102 0.658568 65.5964 0.419753 65.9054 1.67992L67.7238 9.86775C67.3807 9.85917 67.0719 9.9364 66.8318 10.0728C67.4151 10.3439 67.8958 10.8115 68.067 11.3567L68.1013 11.5853L68.4446 13.074L69.6457 18.3711C69.8856 19.6583 69.1311 19.3828 69.2678 20.0413L70.2634 20.0663L71.0524 20.0862L71.5673 20.0992C71.8763 20.0787 72.1164 19.8856 72.1164 19.6577C72.1164 19.8856 72.322 20.0901 72.5968 20.1253L73.1458 20.1392L73.9691 20.1602L74.9646 20.1852C75.1017 19.5339 74.3124 19.7702 74.5869 18.496L75.7536 13.2594L76.0969 11.7872L76.1654 11.5615C76.3371 11.0248 76.7832 10.5807 77.4008 10.3401C77.1606 10.1916 76.8519 10.0985 76.4744 10.089L78.3271 1.99414C78.6361 0.749493 79.2882 1.02209 79.4253 0.371004L77.6409 0.325541Z" fill="#051125"/>
<path d="M57.279 9.93418V8.96632V4.43996C57.2442 3.21941 56.6178 2.13306 55.6254 1.3717C56.0749 3.56814 55.7573 7.03407 55.5814 10.6338C55.4904 6.00212 55.5594 1.33025 54.007 0.533835C53.3782 0.332266 52.6875 0.228925 51.9601 0.247183L50.5189 0.283699L48.769 0.328066L48.7347 0.328979C48.6682 0.330623 48.6054 0.34103 48.5467 0.359835L48.0686 10.5438L47.7565 0.366226C47.7172 0.358923 47.6767 0.355636 47.6364 0.356549L45.8176 0.402559C45.8176 1.05766 46.5384 0.783057 46.573 2.06331V10.2049C46.2298 10.2135 45.8865 10.2791 45.612 10.4284C46.1609 10.6711 46.5041 11.1461 46.573 11.6851V18.6314C46.5384 19.9131 45.8176 19.6754 45.8176 20.3301L47.6025 20.285C47.9114 20.2772 48.1512 20.0431 48.1512 19.8154C48.1512 20.0431 48.4259 20.264 48.7004 20.2571L48.769 20.2555L50.5189 20.2111L51.9601 20.1748C54.8772 20.0723 57.2105 18.1061 57.279 15.713V11.4144C57.3479 10.8717 57.7254 10.3784 58.2401 10.1093C57.9655 9.9738 57.6223 9.9256 57.279 9.93418ZM54.0879 9.04684V10.0147C53.7446 10.0236 53.4017 10.0892 53.127 10.2385C53.6761 10.4808 54.0536 10.955 54.0879 11.4952V15.6798C54.0879 16.6477 54.0879 18.7829 51.9258 18.8375L50.6904 18.8688C50.176 18.8819 49.7645 18.5505 49.7645 18.1235V11.6046C49.8327 11.062 50.176 10.5692 50.7247 10.2992C50.4503 10.1637 50.1071 10.1155 49.7645 10.1241V2.40948C49.7645 1.98261 50.176 1.63041 50.6904 1.58897L51.9258 1.55793C54.0879 1.50297 54.0879 3.63825 54.0879 4.63441V9.04684Z" fill="#051125"/>
<path d="M44.3738 10.245V9.26294V4.66976C44.3405 3.50599 43.7693 2.48062 42.8574 1.7492C43.2983 3.94729 42.9822 7.39879 42.8072 10.9828C42.7162 6.35224 42.7852 1.68146 41.2337 0.883401C40.5406 0.657001 39.7681 0.553112 38.9533 0.601496C38.1409 0.649698 37.3704 0.844146 36.6791 1.15125C35.1291 1.95278 35.2479 7.43403 35.1568 12.0635C34.8399 6.70444 34.7329 3.92373 35.0124 2.24728C34.1222 3.08277 33.5658 4.16218 33.5331 5.31427V9.90708V10.8894C33.1855 10.91 32.8378 10.9885 32.5601 11.1494C33.1158 11.3763 33.4634 11.8468 33.5331 12.3915V16.7531C33.6025 19.1756 35.9998 20.9972 38.9533 20.8216C41.9067 20.6463 44.3044 18.5397 44.3738 16.109V11.7471C44.4432 11.1943 44.8256 10.6803 45.3468 10.3893C45.0688 10.2617 44.7214 10.2242 44.3738 10.245ZM41.1423 9.45501V10.4373C40.7949 10.4577 40.4475 10.5361 40.1697 10.6971C40.7255 10.9242 41.1079 11.3924 41.1423 11.9394V16.1853C41.1423 17.1676 41.1423 19.3341 38.9533 19.4641C36.7642 19.5941 36.7642 17.4278 36.7642 16.4457V12.1994C36.8336 11.6463 37.1811 11.1348 37.7372 10.8417C37.4591 10.7137 37.1116 10.6767 36.7642 10.6971V9.71501V5.23795C36.7642 4.22645 36.7642 2.06032 38.9533 1.93032C41.1423 1.79996 41.1423 3.96664 41.1423 4.97759V9.45501Z" fill="#051125"/>
<path d="M31.313 10.8818V9.88523V5.22596C31.2799 4.07387 30.7281 3.06493 29.843 2.34191C30.2693 4.54018 29.8544 7.98731 29.6797 11.5662C29.5885 6.93601 29.7705 2.26578 28.2189 1.4668C27.495 1.22963 26.6827 1.12757 25.8234 1.19348C24.881 1.26578 23.9949 1.5318 23.2203 1.93914C21.8642 3.05635 22.0733 8.28783 21.9859 12.7335C21.8194 9.32489 21.3953 5.38352 21.7193 3.04302C20.8834 3.88892 20.3655 4.94971 20.3337 6.06948V10.7289V11.7251C19.9817 11.7523 19.63 11.8379 19.3484 12.0059C19.9113 12.2266 20.2635 12.6977 20.3337 13.2491V17.6741C20.4039 20.1302 22.8324 21.9365 25.8234 21.7068C28.8146 21.4771 31.2427 19.2976 31.313 16.8306V12.4058C31.3834 11.8434 31.7705 11.3154 32.2983 11.0114C32.017 10.8861 31.6647 10.8547 31.313 10.8818ZM28.0403 10.1366V11.1332C27.6884 11.1602 27.3365 11.246 27.055 11.414C27.6181 11.6344 28.0052 12.103 28.0403 12.6572V16.9646C28.0403 17.9611 28.0403 20.159 25.8234 20.3294C23.6067 20.4996 23.6067 18.3018 23.6067 17.3055V12.9977C23.6766 12.4355 24.0287 11.9102 24.5916 11.6033C24.3103 11.4784 23.9582 11.4467 23.6067 11.474V10.4775V5.93546C23.6067 4.90973 23.6067 2.71182 25.8234 2.54147C28.0403 2.37094 28.0403 4.56903 28.0403 5.59459V10.1366Z" fill="#051125"/>
<path d="M12.094 12.1289C12.094 12.1289 12.094 15.6458 12.094 15.8215C14.1954 15.585 14.2302 14.0864 14.2302 14.0864V14.0572C14.2302 13.6175 14.6156 13.2224 15.1406 13.134V19.1415C15.1406 20.1378 15.1406 22.3359 12.9344 22.5841C10.7282 22.8327 10.7282 20.6346 10.7282 19.6385V14.3343C10.7983 13.7696 11.1485 13.2319 11.7087 12.9051C11.4286 12.8195 11.0784 12.7709 10.7282 12.8103V11.8142V6.01176C10.7282 4.98584 10.7282 2.7883 12.9344 2.53963C15.1058 2.29534 15.1406 4.43043 15.1406 5.45635V5.48557C15.1406 6.86314 14.3703 6.65664 14.3703 7.35994L16.2263 7.15089C16.5417 7.08625 16.7869 6.85328 16.7869 6.58982C16.7869 6.85328 17.0319 7.03075 17.3471 7.02472L19.1681 6.81968C19.1681 6.1162 18.4326 6.46292 18.3977 5.14798C18.3977 3.76511 17.6763 2.61011 16.5353 1.89676C16.8609 2.72477 16.8442 4.04117 16.6902 5.45289C16.4259 2.21117 15.5013 1.41238 14.7437 1.21702C14.1771 1.11368 13.5683 1.09122 12.9344 1.16242C12.0632 1.26047 11.2399 1.52393 10.5094 1.91046C8.95878 2.71144 9.24093 9.13809 9.14988 13.7678C8.98405 10.3689 8.52083 5.68568 8.83103 3.18231C8.0107 4.05797 7.50317 5.13593 7.47149 6.26135V12.181V13.1771C7.12131 13.2168 6.77112 13.3438 6.49104 13.4928C7.05137 13.6933 7.40156 14.1519 7.47149 14.7011V20.1223C7.5416 22.5762 9.95792 24.2967 12.9344 23.9613C15.9462 23.6224 18.3977 21.295 18.3977 18.7747V11.4191L12.094 12.1289Z" fill="#051125"/>
<path d="M116.623 22.3498C116.623 20.9729 116.623 18.8652 116.623 18.6122C113.533 18.2645 113.5 20.7617 113.5 20.7617V21.633C113.5 22.0544 113.097 22.3459 112.593 22.2892L110.175 22.0171C109.672 21.9605 109.269 21.5778 109.269 21.1564V13.8786C109.269 13.457 109.672 13.1652 110.175 13.1939L110.41 13.2204C110.88 13.3013 111.284 13.6839 111.284 14.1053V14.1335C111.284 14.1335 111.317 15.5704 113.332 15.7973C113.332 15.6286 113.332 14.4486 113.332 13.5492V13.2401C113.332 13.2401 113.332 12.9593 113.332 12.5379C113.332 12.4535 113.332 12.3411 113.332 12.2567C113.332 11.3575 113.332 10.1494 113.332 9.98066C111.317 9.75371 111.284 11.2111 111.284 11.2111V11.2394C111.284 11.661 110.88 11.9527 110.41 11.9275L110.175 11.9012C109.672 11.8167 109.269 11.434 109.269 11.0122V3.45359C109.269 3.06013 109.672 2.74025 110.175 2.79703L112.593 3.06944C113.097 3.12604 113.5 3.53666 113.5 3.93012V4.82915C113.5 4.82915 113.533 7.33379 116.623 7.68161C116.623 7.40062 116.623 5.3212 116.623 3.91643C116.623 2.59564 117.361 2.96007 117.361 2.28562L115.985 2.13061L115.662 2.09446L115.321 5.58795L114.997 2.01942L114.541 1.96793L112.761 1.76764L110.007 1.45762L108.631 1.30261L108.261 1.26098C108.19 1.25313 108.122 1.25824 108.061 1.27339L107.658 11.9635L107.285 1.16074C107.253 1.1507 107.22 1.14376 107.187 1.13993L105.407 0.939453C105.407 1.58561 106.112 1.41215 106.146 2.68036V11.9533C105.81 11.9155 105.474 11.9622 105.206 12.0442C105.743 12.3575 106.079 12.8729 106.146 13.4145V21.2262C106.112 22.4867 105.407 22.1544 105.407 22.8009L107.187 23.0012C107.455 23.0313 107.724 22.865 107.724 22.6123C107.724 22.865 107.959 23.0881 108.261 23.1221L108.631 23.1635L112.761 23.6289L114.541 23.8294L115.615 23.9505L115.985 23.9919L117.361 24.1469C117.361 23.5009 116.623 23.6702 116.623 22.3498Z" fill="#051125"/>
<path d="M104.486 6.11882C104.453 4.95888 103.906 3.86285 103.025 3.00363C103.333 4.36951 103.052 6.82577 102.898 8.23164C102.758 3.73413 102.714 2.56616 101.165 1.77011C100.511 1.48802 99.7908 1.30417 99.0315 1.24574L97.5533 1.13217L95.7585 0.994326L95.7234 0.991405C95.6826 0.988301 95.6431 0.988666 95.605 0.992135L95.0982 11.0883L94.7101 0.924581C94.6729 0.914721 94.6353 0.907783 94.5974 0.904862L92.7324 0.761719C92.7324 1.43599 93.4712 1.22894 93.5063 2.55028V10.9315C93.1544 10.9044 92.8027 10.9358 92.521 11.0607C93.0843 11.3676 93.4364 11.8929 93.5063 12.4551V19.6059C93.4712 20.9215 92.7324 20.6013 92.7324 21.275L94.5622 21.4158C94.8787 21.4399 95.1252 21.2246 95.1252 20.99C95.1252 21.2246 95.4066 21.4804 95.6883 21.502L97.5533 21.6457C97.5533 20.9716 96.7793 21.1757 96.7793 19.7983V12.7065C96.8145 12.4456 96.8844 12.2166 97.0255 12.0224L99.0315 12.1765C102.058 12.3797 104.486 10.544 104.486 8.02368V6.11882ZM101.213 7.77245C101.213 8.76861 101.213 10.9667 98.9961 10.7963L97.7293 10.699C97.2015 10.6585 96.7793 10.2742 96.7793 9.83488V3.24116C96.7793 2.80169 97.2015 2.48254 97.7293 2.49368L98.9961 2.59099C101.213 2.76152 101.213 4.95925 101.213 5.9848V7.77245Z" fill="#051125"/>
<path d="M90.9772 19.4309L89.4136 12.3185C89.3442 11.7657 89.5872 11.2889 90.074 11.0578C89.761 10.9236 89.4481 10.8184 89.0662 10.7958L87.2246 2.45369C86.9464 1.10862 87.7458 1.4159 87.572 0.741086L86.599 0.68339L85.7651 0.633729L85.39 0.611454L87.437 11.5181L84.5843 1.03541L81.7315 11.5181L83.7826 0.516147L83.6455 0.507748L82.8467 0.460277L81.8389 0.400391C81.7 1.05659 82.4643 0.842053 82.2212 2.15645L80.3447 10.2775C79.9972 10.257 79.6498 10.3229 79.3372 10.4199C79.8234 10.7087 80.1014 11.2163 79.9972 11.7591L78.4336 18.6853C78.0862 19.9644 77.4262 19.694 77.287 20.3502L79.1286 20.4596C79.4414 20.4784 79.7194 20.2637 79.754 20.0061C79.7194 20.2637 79.9278 20.5073 80.2404 20.5259L82.0821 20.6352C82.2212 19.9791 81.3871 20.1896 81.7 18.8503C81.7 18.8215 81.7 18.8215 81.7 18.8215L82.4295 15.6008C82.5337 15.2314 83.0201 14.9139 83.5067 14.9427L85.9043 15.0853C86.4255 15.116 86.877 15.4896 86.9817 15.8715L87.7458 19.1808C87.7458 19.1808 87.7458 19.1808 87.7458 19.2097C88.0238 20.5839 87.2246 20.2765 87.3637 20.9491L89.2052 21.0585C89.4834 21.0751 89.6916 20.8565 89.657 20.5943C89.6916 20.8565 90.0042 21.1061 90.317 21.1247L92.1587 21.2341C92.0195 20.5615 91.325 20.7514 90.9772 19.4309ZM85.5915 13.7087L83.7847 13.6017C83.3329 13.5458 82.9855 13.1783 83.0895 12.7804L83.2635 11.953C83.4025 11.4126 83.8891 10.9503 84.5141 10.7273C84.2365 10.5955 83.9235 10.4903 83.5761 10.4693L84.6879 5.59627L85.8001 10.6015C85.4524 10.5809 85.1397 10.649 84.8965 10.7502C85.4872 11.0454 85.9737 11.5654 86.1475 12.1246L86.3558 12.9745C86.4602 13.3852 86.1127 13.7111 85.5915 13.7087Z" fill="#051125"/>
<path d="M101.639 29.3089C101.646 29.3034 101.653 29.2981 101.66 29.2928C98.7096 27.3061 95.759 25.3197 92.8084 23.333C99.7175 24.8884 106.615 26.951 113.501 29.5143C111.244 30.9552 108.988 32.3961 106.731 33.8371C106.81 35.7793 106.889 37.7213 106.969 39.6636C104.328 38.6809 101.69 37.7817 99.0544 36.9661C99.4984 35.2416 99.9422 33.5172 100.386 31.7927C99.5593 33.4005 98.7324 35.0083 97.9057 36.6161C97.3492 37.6983 96.7925 38.7806 96.2359 39.8629C73.5435 33.1286 50.5688 33.1286 27.8764 39.8629C27.3199 38.7806 26.7632 37.6983 26.2067 36.6161C25.38 35.0083 24.5531 33.4005 23.7263 31.7927C24.1702 33.5172 24.614 35.2416 25.0578 36.9661C22.422 37.7817 19.784 38.6809 17.1435 39.6636C17.2229 37.7213 17.3022 35.7793 17.3815 33.8371C15.1246 32.3961 12.8679 30.9552 10.611 29.5143C17.4973 26.951 24.3947 24.8884 31.3039 23.333C28.3533 25.3197 25.4028 27.3061 22.4523 29.2928C22.4592 29.2981 22.4662 29.3034 22.4731 29.3089C48.6687 21.5392 75.4437 21.5392 101.639 29.3089ZM32.4787 30.2767L32.2634 29.329L29.6249 29.9956L29.7747 30.9704L30.4356 30.855L33.5118 35.7291L35.4422 35.2415L36.1079 29.4113L36.679 29.2154L36.4637 28.2676L33.9222 28.9097L34.0948 29.9408L34.7148 29.8254L34.3139 34.3382L34.2848 34.3455L31.9464 30.4628L32.4787 30.2767ZM40.8821 28.7869L42.099 31.2101L40.3744 31.4942L40.8623 28.7903L40.8821 28.7869ZM40.6868 34.2188L40.6236 33.3141L39.9953 33.3669L40.1888 32.4909L42.5541 32.1013L43.0298 32.928L42.4964 33.0768L42.6185 33.9008L45.2991 33.4591L45.2141 32.4766L44.5397 32.5573L41.7912 27.427L39.8201 27.7516L38.664 33.4436L37.9816 33.607L38.1935 34.6296L40.6868 34.2188ZM48.8582 27.6611C49.6036 27.593 50.1697 27.7832 50.2412 28.6541C50.3175 29.5851 49.779 29.9771 49.0537 30.0434L48.5171 30.0925L48.3216 27.71L48.8582 27.6611ZM49.6322 33.0664L49.627 32.1493L48.6888 32.1845L48.6017 31.1234L49.4264 31.0481C50.6289 30.9382 51.9601 30.0806 51.8238 28.4188C51.7021 26.9373 50.6684 26.4166 49.0286 26.5663L46.1269 26.8313L46.1371 27.8086L46.8972 27.7997L47.2562 32.1741L46.5158 32.3021L46.6609 33.3379L49.6322 33.0664ZM58.8157 27.7683L58.7479 25.9209L57.4546 26.044L53.5174 26.2046L53.4835 27.1813L54.2433 27.2107L54.4042 31.5982L53.659 31.689L53.757 32.7306L59.0994 32.5124L59.1034 30.7126L57.9944 30.6874L57.9113 31.4148L55.9379 31.4953L55.8791 29.899L58.4907 29.7923L58.4501 28.6879L55.8389 28.8046L55.7823 27.2585L57.5663 27.1856L57.6395 27.8163L58.8157 27.7683ZM68.6853 27.9227L68.7272 26.0144L67.8598 25.993L67.6531 26.3096C67.3287 26.0905 66.8845 25.8687 66.4159 25.8572C65.1194 25.8254 64.2134 26.6474 64.1879 27.8126C64.1384 30.0525 67.4369 29.7816 67.4133 30.8564C67.4033 31.3085 67.096 31.6727 66.1987 31.6508C65.8694 31.6428 65.5617 31.5749 65.2842 31.4878L65.1783 30.4098L64.0799 30.4531L64.0695 32.282C64.0695 32.282 64.8881 32.7142 66.3341 32.7496C67.9396 32.789 68.9039 32.0386 68.9335 30.6926C68.9789 28.6335 65.6718 28.844 65.6972 27.6888C65.7079 27.1966 66.0434 26.9134 66.6318 26.9278C67.0008 26.937 67.2861 27.1146 67.4627 27.2497L67.5184 27.8942L68.6853 27.9227ZM73.448 32.93L73.5931 31.8944L72.8418 31.7754L72.9741 30.1637L75.6571 30.4087L75.5257 32.0103L74.7655 32.0014L74.7497 33.0487L77.6514 33.3138L77.8015 32.3392L77.0496 32.2302L77.4094 27.8459L78.11 27.8491L78.1955 26.8081L75.2836 26.5422L75.1286 27.5769L75.8789 27.706L75.7475 29.3076L73.0646 29.0626L73.1958 27.461L73.8965 27.4644L73.982 26.4234L71.0703 26.1575L70.9209 27.1221L71.6713 27.2512L71.3123 31.6256L70.5621 31.6176L70.5361 32.664L73.448 32.93ZM85.0465 31.003C84.8467 32.353 84.0887 33.2449 82.8767 33.0454C81.6743 32.8473 81.2396 31.7587 81.4396 30.4087C81.6395 29.0587 82.3553 28.3836 83.5379 28.5782C84.7304 28.7746 85.2464 29.6527 85.0465 31.003ZM86.6233 31.2627C86.9233 29.2375 85.8992 27.7672 83.7114 27.4067C81.5332 27.048 80.1725 28.1256 79.8727 30.1507C79.5729 32.1758 80.5251 33.858 82.7031 34.2168C84.8909 34.5772 86.3236 33.2877 86.6233 31.2627ZM91.6044 30.2554C92.332 30.4392 92.8122 30.8084 92.619 31.6585C92.4127 32.5672 91.7843 32.7598 91.0763 32.5807L90.5525 32.4485L91.0806 30.123L91.6044 30.2554ZM90.7195 35.6419L90.9894 34.7699L90.0888 34.4905L90.324 33.4547L91.1289 33.6581C92.3027 33.9548 93.8226 33.5847 94.1911 31.9629C94.5195 30.5166 93.6946 29.6779 92.0941 29.2735L89.2617 28.5577L88.9787 29.4885L89.7024 29.7334L88.7325 34.0034L87.9916 33.8781L87.8191 34.909L90.7195 35.6419Z" fill="#051125"/>
<path d="M27.2276 43.2193C47.5385 36.1053 76.5742 36.1053 96.8849 43.2193C69.3232 38.127 54.7896 38.127 27.2276 43.2193Z" fill="#966B2A"/>
<path fill-rule="evenodd" clip-rule="evenodd" d="M60.2527 11.6614L62.0242 11.6094L61.0838 15.4571L64.2901 9.8148L62.3275 9.98953L63.9353 6.75L61.5183 7.07025L60.2527 11.6614Z" fill="#966B2A"/>
<path d="M0 17.6606V27.4581C0 29.3355 0.727545 31.0418 1.89962 32.278C4.76393 35.299 11.4543 34.2817 15.4256 34.2817C11.1483 33.5698 1.68757 34.2557 1.68757 27.4581V17.4233C1.68757 14.2814 3.24652 12.6805 5.52298 12.0826V11.5781C2.4023 11.9575 0 13.3413 0 17.6606Z" fill="#966B2A"/>
<path d="M124.113 17.6607V23.6259V27.4581C124.113 29.3356 123.386 31.0418 122.214 32.2781C119.349 35.299 112.659 34.2817 108.688 34.2817C112.965 33.5698 122.426 34.2558 122.426 27.4581V23.6259V17.5276C122.426 13.3598 119.683 11.9032 116.16 11.9032V11.3184C120.371 11.3184 124.113 12.1363 124.113 17.5276V17.6607Z" fill="#966B2A"/>
</svg>
