<svg width="125" height="44" viewBox="0 0 125 44" fill="none" xmlns="http://www.w3.org/2000/svg">
<path d="M77.641 1.10606C77.5992 1.10515 77.5581 1.1077 77.5181 1.11373L74.9359 10.645L76.6761 1.0951C76.6344 1.08543 76.5899 1.07977 76.543 1.07849L74.7585 1.03321C74.5869 1.68374 75.4104 1.44858 75.1017 2.7785L73.283 10.7887C72.9397 10.7801 72.5968 10.8568 72.2878 10.9912C72.7683 11.2597 73.0086 11.7213 72.9397 12.2603L72.1164 15.969L71.2587 12.2177C71.1898 11.6753 71.4642 11.2267 71.9449 10.9826C71.6361 10.8327 71.2928 10.7385 70.9497 10.7297L69.1311 2.62732C68.8221 1.2817 69.6115 1.55795 69.4742 0.899378L67.6554 0.853732C67.6196 0.852819 67.585 0.855376 67.5519 0.861036L69.3418 10.5157L66.7101 0.879476L66.7193 0.847707C66.6665 0.834744 66.6118 0.827076 66.5573 0.825798L64.7729 0.780518C64.9102 1.43909 65.5964 1.20027 65.9054 2.46044L67.7238 10.6483C67.3807 10.6397 67.0719 10.7169 66.8318 10.8533C67.4152 11.1244 67.8959 11.592 68.0671 12.1372L68.1013 12.3658L68.4446 13.8546L69.6458 19.1516C69.8857 20.4388 69.1311 20.1633 69.2679 20.8218L70.2634 20.8469L71.0524 20.8668L71.5674 20.8797C71.8763 20.8593 72.1164 20.6661 72.1164 20.4382C72.1164 20.6661 72.3221 20.8706 72.5968 20.9058L73.1459 20.9197L73.9691 20.9407L74.9646 20.9657C75.1017 20.3144 74.3124 20.5507 74.5869 19.2765L75.7536 14.0399L76.0969 12.5677L76.1655 12.3421C76.3372 11.8053 76.7833 11.3612 77.4009 11.1206C77.1606 10.9722 76.852 10.879 76.4744 10.8696L78.3271 2.77466C78.6361 1.53001 79.2882 1.8026 79.4253 1.15152L77.641 1.10606Z" fill="white"/>
<path d="M57.279 10.7147V9.74683V5.22048C57.2442 3.99993 56.6177 2.91358 55.6253 2.15221C56.0749 4.34866 55.7572 7.81459 55.5814 11.4143C55.4903 6.78264 55.5594 2.11077 54.007 1.31435C53.3781 1.11278 52.6875 1.00944 51.9601 1.0277L50.5188 1.06422L48.769 1.10858L48.7347 1.1095C48.6682 1.11114 48.6054 1.12155 48.5467 1.14035L48.0686 11.3243L47.7565 1.14674C47.7172 1.13944 47.6767 1.13615 47.6364 1.13707L45.8176 1.18308C45.8176 1.83818 46.5384 1.56357 46.573 2.84383V10.9855C46.2297 10.994 45.8865 11.0596 45.6119 11.2089C46.1608 11.4516 46.5041 11.9267 46.573 12.4656V19.4119C46.5384 20.6936 45.8176 20.4559 45.8176 21.1106L47.6024 21.0656C47.9114 21.0577 48.1512 20.8236 48.1512 20.596C48.1512 20.8236 48.4259 21.0446 48.7004 21.0376L48.769 21.036L50.5188 20.9916L51.9601 20.9553C54.8772 20.8528 57.2104 18.8866 57.279 16.4936V12.1949C57.3479 11.6522 57.7254 11.1589 58.24 10.8898C57.9655 10.7543 57.6222 10.7061 57.279 10.7147ZM54.0879 9.82735V10.7952C53.7446 10.8042 53.4017 10.8697 53.127 11.0191C53.676 11.2613 54.0536 11.7355 54.0879 12.2758V16.4603C54.0879 17.4282 54.0879 19.5635 51.9258 19.6181L50.6904 19.6493C50.1759 19.6624 49.7645 19.331 49.7645 18.904V12.3851C49.8327 11.8425 50.1759 11.3497 50.7247 11.0797C50.4503 10.9442 50.107 10.896 49.7645 10.9046V3.19C49.7645 2.76313 50.1759 2.41093 50.6904 2.36949L51.9258 2.33845C54.0879 2.28349 54.0879 4.41877 54.0879 5.41493V9.82735Z" fill="white"/>
<path d="M44.3738 11.026V10.0439V5.45076C44.3405 4.28699 43.7693 3.26162 42.8574 2.5302C43.2983 4.72829 42.9822 8.17979 42.8072 11.7639C42.7162 7.13324 42.7852 2.46247 41.2337 1.66441C40.5406 1.43801 39.7681 1.33412 38.9533 1.3825C38.1409 1.4307 37.3704 1.62515 36.6791 1.93225C35.1291 2.73378 35.2479 8.21503 35.1568 12.8445C34.8399 7.48544 34.7329 4.70474 35.0124 3.02828C34.1222 3.86377 33.5658 4.94319 33.5331 6.09527V10.6881V11.6704C33.1855 11.691 32.8378 11.7695 32.5601 11.9304C33.1158 12.1573 33.4634 12.6278 33.5331 13.1725V17.5341C33.6025 19.9566 35.9998 21.7782 38.9533 21.6026C41.9067 21.4273 44.3044 19.3207 44.3738 16.89V12.5281C44.4432 11.9753 44.8256 11.4613 45.3468 11.1703C45.0688 11.0427 44.7214 11.0052 44.3738 11.026ZM41.1423 10.236V11.2183C40.7949 11.2388 40.4475 11.3171 40.1697 11.4781C40.7255 11.7052 41.1079 12.1734 41.1423 12.7204V16.9663C41.1423 17.9486 41.1423 20.1151 38.9533 20.2451C36.7642 20.3751 36.7642 18.2088 36.7642 17.2267V12.9804C36.8337 12.4274 37.1811 11.9158 37.7372 11.6227C37.4591 11.4947 37.1117 11.4577 36.7642 11.4781V10.496V6.01895C36.7642 5.00746 36.7642 2.84132 38.9533 2.71132C41.1423 2.58096 41.1423 4.74764 41.1423 5.75859V10.236Z" fill="white"/>
<path d="M31.3129 11.6628V10.6662V6.00696C31.2799 4.85488 30.728 3.84594 29.843 3.12292C30.2693 5.32119 29.8544 8.76831 29.6797 12.3473C29.5885 7.71701 29.7704 3.04678 28.2189 2.24781C27.495 2.01064 26.6826 1.90858 25.8234 1.97449C24.881 2.04679 23.9949 2.31281 23.2203 2.72015C21.8642 3.83736 22.0733 9.06884 21.9859 13.5145C21.8194 10.1059 21.3953 6.16453 21.7193 3.82403C20.8834 4.66992 20.3655 5.73072 20.3336 6.85048V11.5099V12.5061C19.9817 12.5333 19.63 12.6189 19.3483 12.7869C19.9113 13.0077 20.2635 13.4787 20.3336 14.0301V18.4551C20.4039 20.9112 22.8323 22.7175 25.8234 22.4878C28.8146 22.2581 31.2426 20.0786 31.3129 17.6116V13.1868C31.3834 12.6244 31.7704 12.0964 32.2982 11.7924C32.0169 11.6671 31.6647 11.6357 31.3129 11.6628ZM28.0403 10.9177V11.9142C27.6884 11.9412 27.3364 12.027 27.055 12.195C27.6181 12.4154 28.0051 12.884 28.0403 13.4382V17.7456C28.0403 18.7421 28.0403 20.94 25.8234 21.1104C23.6066 21.2806 23.6066 19.0828 23.6066 18.0865V13.7787C23.6766 13.2165 24.0286 12.6912 24.5916 12.3843C24.3103 12.2594 23.9582 12.2277 23.6066 12.2551V11.2585V6.71647C23.6066 5.69073 23.6066 3.49283 25.8234 3.32248C28.0403 3.15195 28.0403 5.35004 28.0403 6.37559V10.9177Z" fill="white"/>
<path d="M12.094 12.9096C12.094 12.9096 12.094 16.4265 12.094 16.6021C14.1954 16.3657 14.2302 14.867 14.2302 14.867V14.8378C14.2302 14.3982 14.6155 14.0031 15.1406 13.9147V19.9221C15.1406 20.9185 15.1406 23.1166 12.9344 23.3647C10.7282 23.6134 10.7282 21.4153 10.7282 20.4191V15.115C10.7983 14.5503 11.1485 14.0126 11.7087 13.6857C11.4286 13.6001 11.0784 13.5515 10.7282 13.591V12.5948V6.7924C10.7282 5.76648 10.7282 3.56894 12.9344 3.32027C15.1058 3.07598 15.1406 5.21107 15.1406 6.23699V6.26621C15.1406 7.64378 14.3703 7.43728 14.3703 8.14058L16.2263 7.93152C16.5416 7.86689 16.7869 7.63392 16.7869 7.37045C16.7869 7.63392 17.0319 7.81139 17.3471 7.80536L19.1681 7.60032C19.1681 6.89684 18.4326 7.24356 18.3976 5.92862C18.3976 4.54575 17.6763 3.39075 16.5352 2.6774C16.8608 3.50541 16.8442 4.82181 16.6902 6.23353C16.4258 2.99181 15.5013 2.19302 14.7436 1.99766C14.1771 1.89432 13.5683 1.87186 12.9344 1.94306C12.0632 2.04111 11.2399 2.30457 10.5094 2.6911C8.95876 3.49208 9.24092 9.91873 9.14987 14.5484C8.98404 11.1495 8.52082 6.46632 8.83101 3.96295C8.01069 4.83861 7.50315 5.91657 7.47147 7.04199V12.9616V13.9578C7.12129 13.9974 6.77111 14.1245 6.49103 14.2735C7.05136 14.4739 7.40154 14.9326 7.47147 15.4818V20.903C7.54158 23.3568 9.95791 25.0773 12.9344 24.7419C15.9462 24.403 18.3976 22.0757 18.3976 19.5553V12.1997L12.094 12.9096Z" fill="white"/>
<path d="M116.623 23.1308C116.623 21.7539 116.623 19.6462 116.623 19.3932C113.533 19.0455 113.5 21.5427 113.5 21.5427V22.414C113.5 22.8354 113.097 23.1269 112.593 23.0702L110.175 22.7981C109.672 22.7415 109.269 22.3588 109.269 21.9374V14.6596C109.269 14.238 109.672 13.9462 110.175 13.9749L110.41 14.0014C110.88 14.0823 111.284 14.465 111.284 14.8863V14.9145C111.284 14.9145 111.317 16.3514 113.332 16.5783C113.332 16.4096 113.332 15.2296 113.332 14.3302V14.0211C113.332 14.0211 113.332 13.7403 113.332 13.3189C113.332 13.2345 113.332 13.1221 113.332 13.0377C113.332 12.1385 113.332 10.9304 113.332 10.7617C111.317 10.5347 111.284 11.9921 111.284 11.9921V12.0204C111.284 12.442 110.88 12.7337 110.41 12.7085L110.175 12.6822C109.672 12.5977 109.269 12.215 109.269 11.7932V4.23459C109.269 3.84113 109.672 3.52125 110.175 3.57803L112.593 3.85044C113.097 3.90704 113.5 4.31767 113.5 4.71113V5.61016C113.5 5.61016 113.533 8.1148 116.623 8.46261C116.623 8.18162 116.623 6.10221 116.623 4.69744C116.623 3.37665 117.361 3.74108 117.361 3.06663L115.985 2.91161L115.662 2.87546L115.321 6.36896L114.997 2.80042L114.541 2.74894L112.761 2.54864L110.007 2.23862L108.631 2.08361L108.261 2.04198C108.19 2.03413 108.122 2.03924 108.061 2.0544L107.658 12.7445L107.285 1.94175C107.253 1.9317 107.22 1.92477 107.187 1.92093L105.407 1.72046C105.407 2.36661 106.112 2.19316 106.146 3.46137V12.7343C105.81 12.6965 105.474 12.7432 105.206 12.8252C105.743 13.1385 106.079 13.6539 106.146 14.1955V22.0072C106.112 23.2677 105.407 22.9354 105.407 23.5819L107.187 23.7822C107.455 23.8123 107.724 23.646 107.724 23.3933C107.724 23.646 107.959 23.8691 108.261 23.9031L108.631 23.9445L112.761 24.4099L114.541 24.6104L115.615 24.7315L115.985 24.7729L117.361 24.9279C117.361 24.2819 116.623 24.4512 116.623 23.1308Z" fill="white"/>
<path d="M104.486 6.89946C104.453 5.73952 103.906 4.64349 103.025 3.78427C103.333 5.15015 103.052 7.60641 102.898 9.01228C102.758 4.51477 102.714 3.3468 101.165 2.55075C100.511 2.26866 99.7908 2.08481 99.0315 2.02638L97.5533 1.91281L95.7585 1.77497L95.7234 1.77204C95.6826 1.76894 95.6431 1.76931 95.605 1.77278L95.0982 11.8689L94.7101 1.70522C94.6729 1.69536 94.6353 1.68842 94.5974 1.6855L92.7324 1.54236C92.7324 2.21663 93.4712 2.00958 93.5063 3.33092V11.7121C93.1544 11.6851 92.8027 11.7165 92.521 11.8414C93.0843 12.1483 93.4364 12.6736 93.5063 13.2357V20.3865C93.4712 21.7022 92.7324 21.3819 92.7324 22.0557L94.5622 22.1964C94.8787 22.2205 95.1252 22.0053 95.1252 21.7706C95.1252 22.0053 95.4066 22.2611 95.6883 22.2826L97.5533 22.4263C97.5533 21.7522 96.7793 21.9563 96.7793 20.5789V13.4871C96.8145 13.2262 96.8844 12.9973 97.0255 12.803L99.0315 12.9571C102.058 13.1603 104.486 11.3247 104.486 8.80432V6.89946ZM101.213 8.55309C101.213 9.54925 101.213 11.7473 98.9961 11.577L97.7293 11.4797C97.2015 11.4391 96.7793 11.0548 96.7793 10.6155V4.0218C96.7793 3.58233 97.2015 3.26318 97.7293 3.27432L98.9961 3.37163C101.213 3.54216 101.213 5.73989 101.213 6.76544V8.55309Z" fill="white"/>
<path d="M90.9772 20.2118L89.4136 13.0994C89.3442 12.5465 89.5872 12.0698 90.074 11.8387C89.761 11.7045 89.4481 11.5993 89.0662 11.5767L87.2246 3.23458C86.9464 1.8895 87.7458 2.19679 87.572 1.52197L86.599 1.46427L85.7651 1.41461L85.39 1.39234L87.437 12.299L84.5843 1.81629L81.7315 12.299L83.7826 1.29703L83.6455 1.28863L82.8467 1.24116L81.8389 1.18127C81.7 1.83747 82.4643 1.62294 82.2212 2.93733L80.3447 11.0583C79.9972 11.0379 79.6498 11.1038 79.3372 11.2007C79.8234 11.4896 80.1014 11.9972 79.9972 12.54L78.4336 19.4662C78.0862 20.7453 77.4262 20.4749 77.287 21.1311L79.1286 21.2405C79.4414 21.2593 79.7194 21.0446 79.754 20.787C79.7194 21.0446 79.9278 21.2881 80.2404 21.3068L82.0821 21.4161C82.2212 20.7599 81.3871 20.9704 81.7 19.6312C81.7 19.6024 81.7 19.6024 81.7 19.6024L82.4295 16.3817C82.5337 16.0123 83.0201 15.6948 83.5067 15.7236L85.9043 15.8662C86.4255 15.8969 86.877 16.2705 86.9817 16.6524L87.7458 19.9617C87.7458 19.9617 87.7458 19.9617 87.7458 19.9905C88.0238 21.3648 87.2246 21.0574 87.3637 21.73L89.2052 21.8394C89.4834 21.856 89.6916 21.6374 89.657 21.3752C89.6916 21.6374 90.0042 21.887 90.317 21.9056L92.1587 22.015C92.0195 21.3424 91.325 21.5323 90.9772 20.2118ZM85.5915 14.4896L83.7847 14.3826C83.3329 14.3267 82.9855 13.9592 83.0895 13.5613L83.2635 12.7339C83.4025 12.1934 83.8891 11.7311 84.5141 11.5082C84.2365 11.3764 83.9235 11.2712 83.5761 11.2502L84.6879 6.37715L85.8001 11.3824C85.4524 11.3618 85.1397 11.4299 84.8965 11.531C85.4872 11.8263 85.9737 12.3463 86.1475 12.9055L86.3558 13.7554C86.4602 14.166 86.1127 14.4919 85.5915 14.4896Z" fill="white"/>
<path d="M101.639 30.0893C101.646 30.0838 101.653 30.0785 101.66 30.0732C98.7096 28.0865 95.759 26.1001 92.8084 24.1134C99.7175 25.6688 106.615 27.7314 113.501 30.2947C111.244 31.7356 108.988 33.1765 106.731 34.6174C106.81 36.5597 106.889 38.5017 106.969 40.444C104.328 39.4613 101.69 38.5621 99.0544 37.7465C99.4984 36.022 99.9422 34.2976 100.386 32.5731C99.5593 34.1809 98.7324 35.7887 97.9057 37.3965C97.3492 38.4787 96.7925 39.561 96.2359 40.6433C73.5435 33.909 50.5688 33.909 27.8764 40.6433C27.3199 39.561 26.7632 38.4787 26.2067 37.3965C25.38 35.7887 24.5531 34.1809 23.7263 32.5731C24.1702 34.2976 24.614 36.022 25.0578 37.7465C22.422 38.5621 19.784 39.4613 17.1435 40.444C17.2229 38.5017 17.3022 36.5597 17.3815 34.6174C15.1246 33.1765 12.8679 31.7356 10.611 30.2947C17.4973 27.7314 24.3947 25.6688 31.3039 24.1134C28.3533 26.1001 25.4028 28.0865 22.4523 30.0732C22.4592 30.0785 22.4662 30.0838 22.4731 30.0893C48.6687 22.3196 75.4437 22.3196 101.639 30.0893ZM32.4787 31.0571L32.2634 30.1093L29.6249 30.776L29.7747 31.7507L30.4356 31.6354L33.5118 36.5095L35.4422 36.0219L36.1079 30.1917L36.679 29.9958L36.4637 29.048L33.9222 29.6901L34.0948 30.7212L34.7148 30.6058L34.3139 35.1186L34.2848 35.1259L31.9464 31.2432L32.4787 31.0571ZM40.8821 29.5673L42.099 31.9905L40.3744 32.2746L40.8623 29.5707L40.8821 29.5673ZM40.6868 34.9992L40.6236 34.0945L39.9953 34.1473L40.1888 33.2713L42.5541 32.8817L43.0298 33.7084L42.4964 33.8572L42.6185 34.6812L45.2991 34.2395L45.2141 33.257L44.5397 33.3377L41.7912 28.2074L39.8201 28.532L38.664 34.224L37.9816 34.3874L38.1935 35.41L40.6868 34.9992ZM48.8582 28.4415C49.6036 28.3734 50.1697 28.5636 50.2412 29.4345C50.3175 30.3655 49.779 30.7575 49.0537 30.8238L48.5171 30.8729L48.3216 28.4904L48.8582 28.4415ZM49.6322 33.8468L49.627 32.9297L48.6888 32.9649L48.6017 31.9038L49.4264 31.8285C50.6289 31.7186 51.9601 30.861 51.8238 29.1992C51.7021 27.7177 50.6684 27.197 49.0286 27.3467L46.1269 27.6116L46.1371 28.589L46.8972 28.5801L47.2562 32.9545L46.5158 33.0825L46.6609 34.1183L49.6322 33.8468ZM58.8157 28.5487L58.7479 26.7013L57.4546 26.8244L53.5174 26.985L53.4835 27.9617L54.2433 27.991L54.4042 32.3786L53.659 32.4694L53.757 33.511L59.0994 33.2928L59.1034 31.4929L57.9944 31.4677L57.9113 32.1952L55.9379 32.2757L55.8791 30.6794L58.4907 30.5727L58.4501 29.4683L55.8389 29.585L55.7823 28.0389L57.5663 27.966L57.6395 28.5967L58.8157 28.5487ZM68.6853 28.7031L68.7272 26.7948L67.8598 26.7734L67.6531 27.09C67.3287 26.8709 66.8845 26.6491 66.4159 26.6376C65.1194 26.6058 64.2134 27.4278 64.1879 28.593C64.1384 30.8329 67.4369 30.562 67.4133 31.6368C67.4033 32.0889 67.096 32.4531 66.1987 32.4312C65.8694 32.4232 65.5617 32.3553 65.2842 32.2682L65.1783 31.1902L64.0799 31.2335L64.0695 33.0624C64.0695 33.0624 64.8881 33.4946 66.3341 33.53C67.9396 33.5694 68.9039 32.819 68.9335 31.473C68.9789 29.4139 65.6718 29.6244 65.6972 28.4692C65.7079 27.977 66.0434 27.6938 66.6318 27.7082C67.0008 27.7174 67.2861 27.895 67.4627 28.0301L67.5184 28.6746L68.6853 28.7031ZM73.448 33.7104L73.5931 32.6748L72.8418 32.5557L72.9741 30.9441L75.6571 31.1891L75.5257 32.7907L74.7655 32.7818L74.7497 33.8291L77.6514 34.0942L77.8015 33.1196L77.0496 33.0106L77.4094 28.6262L78.11 28.6295L78.1955 27.5885L75.2836 27.3226L75.1286 28.3573L75.8789 28.4864L75.7475 30.088L73.0646 29.843L73.1958 28.2414L73.8965 28.2448L73.982 27.2038L71.0703 26.9379L70.9209 27.9025L71.6713 28.0316L71.3123 32.406L70.5621 32.398L70.5361 33.4444L73.448 33.7104ZM85.0465 31.7834C84.8467 33.1334 84.0887 34.0253 82.8767 33.8258C81.6743 33.6277 81.2396 32.5391 81.4396 31.1891C81.6395 29.8391 82.3553 29.1639 83.5379 29.3586C84.7304 29.555 85.2464 30.4331 85.0465 31.7834ZM86.6233 32.0431C86.9233 30.0179 85.8992 28.5476 83.7114 28.1871C81.5332 27.8284 80.1725 28.906 79.8727 30.9311C79.5729 32.9561 80.5251 34.6384 82.7031 34.9972C84.8909 35.3576 86.3236 34.0681 86.6233 32.0431ZM91.6044 31.0358C92.332 31.2196 92.8122 31.5888 92.619 32.4389C92.4127 33.3476 91.7843 33.5402 91.0763 33.3611L90.5525 33.2289L91.0806 30.9034L91.6044 31.0358ZM90.7195 36.4223L90.9894 35.5503L90.0888 35.2709L90.324 34.2351L91.1289 34.4385C92.3027 34.7352 93.8226 34.3651 94.1911 32.7433C94.5195 31.297 93.6946 30.4583 92.0941 30.0538L89.2617 29.3381L88.9787 30.2689L89.7024 30.5138L88.7325 34.7838L87.9916 34.6585L87.8191 35.6894L90.7195 36.4223Z" fill="white"/>
<path d="M27.2277 44.0001C47.5385 36.886 76.5742 36.886 96.8849 44.0001C69.3232 38.9077 54.7896 38.9077 27.2277 44.0001Z" fill="#966B2A"/>
<path fill-rule="evenodd" clip-rule="evenodd" d="M60.2527 12.4423L62.0242 12.3903L61.0837 16.238L64.2901 10.5957L62.3275 10.7704L63.9352 7.53088L61.5182 7.85113L60.2527 12.4423Z" fill="#966B2A"/>
<path d="M0 18.4415V28.239C0 30.1164 0.727545 31.8226 1.89962 33.0589C4.76393 36.0799 11.4543 35.0625 15.4256 35.0625C11.1483 34.3507 1.68757 35.0366 1.68757 28.239V18.2041C1.68757 15.0623 3.24652 13.4614 5.52298 12.8635V12.359C2.4023 12.7384 0 14.1222 0 18.4415Z" fill="#966B2A"/>
<path d="M124.113 18.4415V24.4068V28.239C124.113 30.1165 123.386 31.8227 122.214 33.0589C119.349 36.0799 112.659 35.0626 108.688 35.0626C112.965 34.3507 122.426 35.0367 122.426 28.239V24.4068V18.3084C122.426 14.1407 119.683 12.684 116.16 12.684V12.0992C120.371 12.0992 124.113 12.9172 124.113 18.3084V18.4415Z" fill="#966B2A"/>
</svg>
