<svg width="282" height="201" viewBox="0 0 282 201" fill="none" xmlns="http://www.w3.org/2000/svg">
<path d="M79.6308 197H40.8558V46.8499L0.155762 67.4749V28.6999L45.2558 4.4999H79.6308V197Z" fill="white" fill-opacity="0.02"/>
<path d="M198.884 200.85C181.834 200.85 166.892 196.083 154.059 186.55C141.592 177.2 132.059 165.1 125.459 150.25C119.042 135.4 115.834 118.9 115.834 100.75C115.834 82.7832 118.951 66.4666 125.184 51.7999C131.784 36.3999 141.501 24.0249 154.334 14.6749C167.351 5.3249 182.201 0.649902 198.884 0.649902C224.184 0.649902 244.259 10.4582 259.109 30.0749C274.142 49.5082 281.659 73.0666 281.659 100.75C281.659 128.433 274.142 151.992 259.109 171.425C244.259 191.042 224.184 200.85 198.884 200.85ZM167.259 145.575C175.326 157.675 185.867 163.725 198.884 163.725C212.084 163.725 222.534 157.675 230.234 145.575C238.117 133.292 242.059 118.35 242.059 100.75C242.059 82.9666 238.117 68.1166 230.234 56.1999C222.534 43.9166 212.084 37.7749 198.884 37.7749C185.684 37.7749 175.142 43.9166 167.259 56.1999C159.376 68.1166 155.434 82.9666 155.434 100.75C155.434 118.35 159.376 133.292 167.259 145.575Z" fill="white" fill-opacity="0.02"/>
</svg>
