<svg width="206" height="572" viewBox="0 0 206 572" fill="none" xmlns="http://www.w3.org/2000/svg">
<circle cx="99.0527" cy="567.484" r="4.51579" transform="rotate(-90 99.0527 567.484)" fill="#6651E7" fill-opacity="0.17"/>
<circle cx="-3.30526" cy="567.484" r="4.51579" transform="rotate(-90 -3.30526 567.484)" fill="#6651E7" fill-opacity="0.17"/>
<circle cx="150.232" cy="567.484" r="4.51579" transform="rotate(-90 150.232 567.484)" fill="#6651E7" fill-opacity="0.17"/>
<circle cx="47.8737" cy="567.484" r="4.51579" transform="rotate(-90 47.8737 567.484)" fill="#6651E7" fill-opacity="0.17"/>
<circle cx="201.411" cy="567.484" r="4.51579" transform="rotate(-90 201.411 567.484)" fill="#6651E7" fill-opacity="0.17"/>
<circle cx="99.0527" cy="260.411" r="4.51579" transform="rotate(-90 99.0527 260.411)" fill="#6651E7" fill-opacity="0.17"/>
<circle cx="-3.30526" cy="260.411" r="4.51579" transform="rotate(-90 -3.30526 260.411)" fill="#6651E7" fill-opacity="0.17"/>
<circle cx="150.232" cy="260.411" r="4.51579" transform="rotate(-90 150.232 260.411)" fill="#6651E7" fill-opacity="0.17"/>
<circle cx="47.8737" cy="260.411" r="4.51579" transform="rotate(-90 47.8737 260.411)" fill="#6651E7" fill-opacity="0.17"/>
<circle cx="201.411" cy="260.411" r="4.51579" transform="rotate(-90 201.411 260.411)" fill="#6651E7" fill-opacity="0.17"/>
<circle cx="99.0527" cy="413.947" r="4.51579" transform="rotate(-90 99.0527 413.947)" fill="#6651E7" fill-opacity="0.17"/>
<circle cx="-3.30526" cy="413.947" r="4.51579" transform="rotate(-90 -3.30526 413.947)" fill="#6651E7" fill-opacity="0.17"/>
<circle cx="150.232" cy="413.947" r="4.51579" transform="rotate(-90 150.232 413.947)" fill="#6651E7" fill-opacity="0.17"/>
<circle cx="47.8737" cy="413.947" r="4.51579" transform="rotate(-90 47.8737 413.947)" fill="#6651E7" fill-opacity="0.17"/>
<circle cx="201.411" cy="413.947" r="4.51579" transform="rotate(-90 201.411 413.947)" fill="#6651E7" fill-opacity="0.17"/>
<circle cx="99.0526" cy="106.874" r="4.51579" transform="rotate(-90 99.0526 106.874)" fill="#6651E7" fill-opacity="0.17"/>
<circle cx="-3.30526" cy="106.874" r="4.51579" transform="rotate(-90 -3.30526 106.874)" fill="#6651E7" fill-opacity="0.17"/>
<circle cx="150.232" cy="106.874" r="4.51579" transform="rotate(-90 150.232 106.874)" fill="#6651E7" fill-opacity="0.17"/>
<circle cx="47.8736" cy="106.874" r="4.51579" transform="rotate(-90 47.8736 106.874)" fill="#6651E7" fill-opacity="0.17"/>
<circle cx="201.411" cy="106.874" r="4.51579" transform="rotate(-90 201.411 106.874)" fill="#6651E7" fill-opacity="0.17"/>
<circle cx="99.0527" cy="516.305" r="4.51579" transform="rotate(-90 99.0527 516.305)" fill="#6651E7" fill-opacity="0.17"/>
<circle cx="-3.30526" cy="516.305" r="4.51579" transform="rotate(-90 -3.30526 516.305)" fill="#6651E7" fill-opacity="0.17"/>
<circle cx="150.232" cy="516.305" r="4.51579" transform="rotate(-90 150.232 516.305)" fill="#6651E7" fill-opacity="0.17"/>
<circle cx="47.8737" cy="516.305" r="4.51579" transform="rotate(-90 47.8737 516.305)" fill="#6651E7" fill-opacity="0.17"/>
<circle cx="201.411" cy="516.305" r="4.51579" transform="rotate(-90 201.411 516.305)" fill="#6651E7" fill-opacity="0.17"/>
<circle cx="99.0526" cy="209.232" r="4.51579" transform="rotate(-90 99.0526 209.232)" fill="#6651E7" fill-opacity="0.17"/>
<circle cx="-3.30526" cy="209.232" r="4.51579" transform="rotate(-90 -3.30526 209.232)" fill="#6651E7" fill-opacity="0.17"/>
<circle cx="150.232" cy="209.232" r="4.51579" transform="rotate(-90 150.232 209.232)" fill="#6651E7" fill-opacity="0.17"/>
<circle cx="47.8736" cy="209.232" r="4.51579" transform="rotate(-90 47.8736 209.232)" fill="#6651E7" fill-opacity="0.17"/>
<circle cx="201.411" cy="209.232" r="4.51579" transform="rotate(-90 201.411 209.232)" fill="#6651E7" fill-opacity="0.17"/>
<circle cx="99.0527" cy="362.768" r="4.51579" transform="rotate(-90 99.0527 362.768)" fill="#6651E7" fill-opacity="0.17"/>
<circle cx="-3.30526" cy="362.768" r="4.51579" transform="rotate(-90 -3.30526 362.768)" fill="#6651E7" fill-opacity="0.17"/>
<circle cx="150.232" cy="362.768" r="4.51579" transform="rotate(-90 150.232 362.768)" fill="#6651E7" fill-opacity="0.17"/>
<circle cx="47.8737" cy="362.768" r="4.51579" transform="rotate(-90 47.8737 362.768)" fill="#6651E7" fill-opacity="0.17"/>
<circle cx="201.411" cy="362.768" r="4.51579" transform="rotate(-90 201.411 362.768)" fill="#6651E7" fill-opacity="0.17"/>
<circle cx="99.0526" cy="55.6947" r="4.51579" transform="rotate(-90 99.0526 55.6947)" fill="#6651E7" fill-opacity="0.17"/>
<circle cx="-3.30526" cy="55.6947" r="4.51579" transform="rotate(-90 -3.30526 55.6947)" fill="#6651E7" fill-opacity="0.17"/>
<circle cx="150.232" cy="55.6947" r="4.51579" transform="rotate(-90 150.232 55.6947)" fill="#6651E7" fill-opacity="0.17"/>
<circle cx="47.8736" cy="55.6947" r="4.51579" transform="rotate(-90 47.8736 55.6947)" fill="#6651E7" fill-opacity="0.17"/>
<circle cx="201.411" cy="55.6947" r="4.51579" transform="rotate(-90 201.411 55.6947)" fill="#6651E7" fill-opacity="0.17"/>
<circle cx="99.0527" cy="465.126" r="4.51579" transform="rotate(-90 99.0527 465.126)" fill="#6651E7" fill-opacity="0.17"/>
<circle cx="-3.30526" cy="465.126" r="4.51579" transform="rotate(-90 -3.30526 465.126)" fill="#6651E7" fill-opacity="0.17"/>
<circle cx="150.232" cy="465.126" r="4.51579" transform="rotate(-90 150.232 465.126)" fill="#6651E7" fill-opacity="0.17"/>
<circle cx="47.8737" cy="465.126" r="4.51579" transform="rotate(-90 47.8737 465.126)" fill="#6651E7" fill-opacity="0.17"/>
<circle cx="201.411" cy="465.126" r="4.51579" transform="rotate(-90 201.411 465.126)" fill="#6651E7" fill-opacity="0.17"/>
<circle cx="99.0526" cy="158.053" r="4.51579" transform="rotate(-90 99.0526 158.053)" fill="#6651E7" fill-opacity="0.17"/>
<circle cx="-3.30526" cy="158.053" r="4.51579" transform="rotate(-90 -3.30526 158.053)" fill="#6651E7" fill-opacity="0.17"/>
<circle cx="150.232" cy="158.053" r="4.51579" transform="rotate(-90 150.232 158.053)" fill="#6651E7" fill-opacity="0.17"/>
<circle cx="47.8736" cy="158.053" r="4.51579" transform="rotate(-90 47.8736 158.053)" fill="#6651E7" fill-opacity="0.17"/>
<circle cx="201.411" cy="158.053" r="4.51579" transform="rotate(-90 201.411 158.053)" fill="#6651E7" fill-opacity="0.17"/>
<circle cx="99.0527" cy="311.59" r="4.51579" transform="rotate(-90 99.0527 311.59)" fill="#6651E7" fill-opacity="0.17"/>
<circle cx="-3.30526" cy="311.59" r="4.51579" transform="rotate(-90 -3.30526 311.59)" fill="#6651E7" fill-opacity="0.17"/>
<circle cx="150.232" cy="311.59" r="4.51579" transform="rotate(-90 150.232 311.59)" fill="#6651E7" fill-opacity="0.17"/>
<circle cx="47.8737" cy="311.59" r="4.51579" transform="rotate(-90 47.8737 311.59)" fill="#6651E7" fill-opacity="0.17"/>
<circle cx="201.411" cy="311.59" r="4.51579" transform="rotate(-90 201.411 311.59)" fill="#6651E7" fill-opacity="0.17"/>
<circle cx="99.0526" cy="4.51577" r="4.51579" transform="rotate(-90 99.0526 4.51577)" fill="#6651E7" fill-opacity="0.17"/>
<circle cx="-3.30532" cy="4.51577" r="4.51579" transform="rotate(-90 -3.30532 4.51577)" fill="#6651E7" fill-opacity="0.17"/>
<circle cx="150.232" cy="4.51577" r="4.51579" transform="rotate(-90 150.232 4.51577)" fill="#6651E7" fill-opacity="0.17"/>
<circle cx="47.8736" cy="4.51577" r="4.51579" transform="rotate(-90 47.8736 4.51577)" fill="#6651E7" fill-opacity="0.17"/>
<circle cx="201.411" cy="4.51577" r="4.51579" transform="rotate(-90 201.411 4.51577)" fill="#6651E7" fill-opacity="0.17"/>
</svg>
