<svg width="60" height="335" viewBox="0 0 60 335" fill="none" xmlns="http://www.w3.org/2000/svg">
<path d="M0.869502 15.8939C0.869503 9.91839 2.21534 4.64273 4.907 0.0668921L16.4543 0.0668926C13.2243 4.10439 11.6093 9.40698 11.6093 15.9746C11.6093 20.3351 12.9551 24.1842 15.6468 27.5219C18.3923 30.8596 21.9183 32.9322 26.225 33.7397L26.225 11.6949L35.9958 11.6949L35.9958 33.1744C39.8718 32.2054 42.9672 30.1597 45.282 27.0374C47.7045 23.9151 48.9158 20.3082 48.9158 16.2169C48.9158 10.6182 47.4892 5.58481 44.636 1.11664L56.0218 1.11664C58.4443 5.63865 59.6555 10.6182 59.6555 16.0554C59.6555 24.6687 56.8023 31.8555 51.096 37.6157C45.4435 43.4297 38.499 46.3367 30.2625 46.3367C22.0798 46.3367 15.1353 43.4027 9.429 37.5349C3.72267 31.6671 0.869502 24.4534 0.869502 15.8939Z" fill="white" fill-opacity="0.02"/>
<path d="M48.1083 48.8494L58.525 48.8494L58.525 96.2496L48.1083 96.2496L48.1083 78.3231L2 78.3231L2 66.6951L48.1083 66.6951L48.1083 48.8494Z" fill="white" fill-opacity="0.02"/>
<path d="M2 104.151L2 91.9579L58.848 116.183L58.848 127.326L2 151.551L2 139.197L15.0815 133.625L15.0815 109.723L2 104.151ZM44.313 121.674L24.6908 113.357L24.6908 129.91L44.313 121.674Z" fill="white" fill-opacity="0.02"/>
<path d="M2 170.651L2 159.023L58.525 159.023L58.525 206.343L1.99999 206.343L2 194.796L48.1083 194.796L48.1083 170.651L2 170.651Z" fill="white" fill-opacity="0.02"/>
<path d="M17.0195 233.734C13.5203 237.072 11.7707 241.244 11.7707 246.25C11.7707 251.203 13.5203 255.348 17.0195 258.686C20.5187 262.024 24.933 263.692 30.2625 263.692C35.592 263.692 40.0063 262.024 43.5055 258.686C47.0047 255.348 48.7543 251.203 48.7543 246.25C48.7543 241.244 47.0047 237.072 43.5055 233.734C40.0602 230.45 35.6458 228.808 30.2625 228.808C24.8792 228.808 20.4648 230.45 17.0195 233.734ZM30.2625 216.938C38.5528 216.938 45.4973 219.71 51.096 225.255C56.8023 230.8 59.6555 237.798 59.6555 246.25C59.6555 254.648 56.8023 261.62 51.096 267.165C45.3897 272.763 38.4452 275.563 30.2625 275.563C22.1337 275.563 15.1892 272.763 9.42899 267.165C3.72266 261.62 0.869492 254.648 0.869492 246.25C0.869493 237.798 3.72266 230.8 9.42899 225.255C15.1353 219.71 22.0798 216.938 30.2625 216.938Z" fill="white" fill-opacity="0.02"/>
<path d="M1.99999 314.487L1.99999 286.063L58.525 286.063L58.525 312.629C58.525 317.851 57.2868 321.996 54.8105 325.065C52.3342 328.187 48.8619 329.748 44.3937 329.748C41.6482 329.748 39.3065 329.075 37.3685 327.73C35.4305 326.384 34.0308 324.688 33.1695 322.642C32.5235 325.711 30.8547 328.403 28.163 330.717C25.5252 332.978 22.1606 334.109 18.0692 334.109C13.2781 334.109 9.40208 332.332 6.44124 328.779C3.48041 325.28 1.99999 320.516 1.99999 314.487ZM26.7902 297.691L12.013 297.691L12.013 312.306C12.013 315.213 12.6321 317.474 13.8702 319.089C15.1622 320.704 16.9926 321.512 19.3612 321.512C21.7299 321.512 23.5602 320.704 24.8522 319.089C26.1442 317.474 26.7902 315.213 26.7902 312.306L26.7902 297.691ZM48.835 297.691L36.3995 297.691L36.3995 310.772C36.3995 313.195 36.9378 315.079 38.0145 316.425C39.0912 317.824 40.5985 318.524 42.5365 318.524C44.5283 318.524 46.0626 317.824 47.1392 316.425C48.2698 315.079 48.835 313.195 48.835 310.772L48.835 297.691Z" fill="white" fill-opacity="0.02"/>
</svg>
