<svg width="572" height="265" viewBox="0 0 572 265" fill="none" xmlns="http://www.w3.org/2000/svg">
<circle cx="567.484" cy="260.41" r="4.51579" transform="rotate(180 567.484 260.41)" fill="#6651E7" fill-opacity="0.17"/>
<circle cx="567.484" cy="106.874" r="4.51579" transform="rotate(180 567.484 106.874)" fill="#6651E7" fill-opacity="0.17"/>
<circle cx="567.484" cy="209.232" r="4.51579" transform="rotate(180 567.484 209.232)" fill="#6651E7" fill-opacity="0.17"/>
<circle cx="567.484" cy="55.6947" r="4.51579" transform="rotate(180 567.484 55.6947)" fill="#6651E7" fill-opacity="0.17"/>
<circle cx="567.484" cy="158.053" r="4.51579" transform="rotate(180 567.484 158.053)" fill="#6651E7" fill-opacity="0.17"/>
<circle cx="567.484" cy="4.51571" r="4.51579" transform="rotate(180 567.484 4.51571)" fill="#6651E7" fill-opacity="0.17"/>
<circle cx="260.411" cy="260.41" r="4.51579" transform="rotate(180 260.411 260.41)" fill="#6651E7" fill-opacity="0.17"/>
<circle cx="260.411" cy="106.874" r="4.51579" transform="rotate(180 260.411 106.874)" fill="#6651E7" fill-opacity="0.17"/>
<circle cx="260.411" cy="209.232" r="4.51579" transform="rotate(180 260.411 209.232)" fill="#6651E7" fill-opacity="0.17"/>
<circle cx="260.411" cy="55.6947" r="4.51579" transform="rotate(180 260.411 55.6947)" fill="#6651E7" fill-opacity="0.17"/>
<circle cx="260.411" cy="158.053" r="4.51579" transform="rotate(180 260.411 158.053)" fill="#6651E7" fill-opacity="0.17"/>
<circle cx="260.411" cy="4.51571" r="4.51579" transform="rotate(180 260.411 4.51571)" fill="#6651E7" fill-opacity="0.17"/>
<circle cx="413.947" cy="260.41" r="4.51579" transform="rotate(180 413.947 260.41)" fill="#6651E7" fill-opacity="0.17"/>
<circle cx="413.947" cy="106.874" r="4.51579" transform="rotate(180 413.947 106.874)" fill="#6651E7" fill-opacity="0.17"/>
<circle cx="413.947" cy="209.232" r="4.51579" transform="rotate(180 413.947 209.232)" fill="#6651E7" fill-opacity="0.17"/>
<circle cx="413.947" cy="55.6947" r="4.51579" transform="rotate(180 413.947 55.6947)" fill="#6651E7" fill-opacity="0.17"/>
<circle cx="413.947" cy="158.053" r="4.51579" transform="rotate(180 413.947 158.053)" fill="#6651E7" fill-opacity="0.17"/>
<circle cx="413.947" cy="4.51571" r="4.51579" transform="rotate(180 413.947 4.51571)" fill="#6651E7" fill-opacity="0.17"/>
<circle cx="106.874" cy="260.41" r="4.51579" transform="rotate(180 106.874 260.41)" fill="#6651E7" fill-opacity="0.17"/>
<circle cx="106.874" cy="106.874" r="4.51579" transform="rotate(180 106.874 106.874)" fill="#6651E7" fill-opacity="0.17"/>
<circle cx="106.874" cy="209.232" r="4.51579" transform="rotate(180 106.874 209.232)" fill="#6651E7" fill-opacity="0.17"/>
<circle cx="106.874" cy="55.6948" r="4.51579" transform="rotate(180 106.874 55.6948)" fill="#6651E7" fill-opacity="0.17"/>
<circle cx="106.874" cy="158.053" r="4.51579" transform="rotate(180 106.874 158.053)" fill="#6651E7" fill-opacity="0.17"/>
<circle cx="106.874" cy="4.51583" r="4.51579" transform="rotate(180 106.874 4.51583)" fill="#6651E7" fill-opacity="0.17"/>
<circle cx="516.305" cy="260.41" r="4.51579" transform="rotate(180 516.305 260.41)" fill="#6651E7" fill-opacity="0.17"/>
<circle cx="516.305" cy="106.874" r="4.51579" transform="rotate(180 516.305 106.874)" fill="#6651E7" fill-opacity="0.17"/>
<circle cx="516.305" cy="209.232" r="4.51579" transform="rotate(180 516.305 209.232)" fill="#6651E7" fill-opacity="0.17"/>
<circle cx="516.305" cy="55.6947" r="4.51579" transform="rotate(180 516.305 55.6947)" fill="#6651E7" fill-opacity="0.17"/>
<circle cx="516.305" cy="158.053" r="4.51579" transform="rotate(180 516.305 158.053)" fill="#6651E7" fill-opacity="0.17"/>
<circle cx="516.305" cy="4.51571" r="4.51579" transform="rotate(180 516.305 4.51571)" fill="#6651E7" fill-opacity="0.17"/>
<circle cx="209.232" cy="260.41" r="4.51579" transform="rotate(180 209.232 260.41)" fill="#6651E7" fill-opacity="0.17"/>
<circle cx="209.232" cy="106.874" r="4.51579" transform="rotate(180 209.232 106.874)" fill="#6651E7" fill-opacity="0.17"/>
<circle cx="209.232" cy="209.232" r="4.51579" transform="rotate(180 209.232 209.232)" fill="#6651E7" fill-opacity="0.17"/>
<circle cx="209.232" cy="55.6948" r="4.51579" transform="rotate(180 209.232 55.6948)" fill="#6651E7" fill-opacity="0.17"/>
<circle cx="209.232" cy="158.053" r="4.51579" transform="rotate(180 209.232 158.053)" fill="#6651E7" fill-opacity="0.17"/>
<circle cx="209.232" cy="4.51583" r="4.51579" transform="rotate(180 209.232 4.51583)" fill="#6651E7" fill-opacity="0.17"/>
<circle cx="362.768" cy="260.41" r="4.51579" transform="rotate(180 362.768 260.41)" fill="#6651E7" fill-opacity="0.17"/>
<circle cx="362.768" cy="106.874" r="4.51579" transform="rotate(180 362.768 106.874)" fill="#6651E7" fill-opacity="0.17"/>
<circle cx="362.768" cy="209.232" r="4.51579" transform="rotate(180 362.768 209.232)" fill="#6651E7" fill-opacity="0.17"/>
<circle cx="362.768" cy="55.6947" r="4.51579" transform="rotate(180 362.768 55.6947)" fill="#6651E7" fill-opacity="0.17"/>
<circle cx="362.768" cy="158.053" r="4.51579" transform="rotate(180 362.768 158.053)" fill="#6651E7" fill-opacity="0.17"/>
<circle cx="362.768" cy="4.51571" r="4.51579" transform="rotate(180 362.768 4.51571)" fill="#6651E7" fill-opacity="0.17"/>
<circle cx="55.6948" cy="260.41" r="4.51579" transform="rotate(180 55.6948 260.41)" fill="#6651E7" fill-opacity="0.17"/>
<circle cx="55.6948" cy="106.874" r="4.51579" transform="rotate(180 55.6948 106.874)" fill="#6651E7" fill-opacity="0.17"/>
<circle cx="55.6948" cy="209.232" r="4.51579" transform="rotate(180 55.6948 209.232)" fill="#6651E7" fill-opacity="0.17"/>
<circle cx="55.6947" cy="55.6948" r="4.51579" transform="rotate(180 55.6947 55.6948)" fill="#6651E7" fill-opacity="0.17"/>
<circle cx="55.6948" cy="158.053" r="4.51579" transform="rotate(180 55.6948 158.053)" fill="#6651E7" fill-opacity="0.17"/>
<circle cx="55.6947" cy="4.51583" r="4.51579" transform="rotate(180 55.6947 4.51583)" fill="#6651E7" fill-opacity="0.17"/>
<circle cx="465.126" cy="260.41" r="4.51579" transform="rotate(180 465.126 260.41)" fill="#6651E7" fill-opacity="0.17"/>
<circle cx="465.126" cy="106.874" r="4.51579" transform="rotate(180 465.126 106.874)" fill="#6651E7" fill-opacity="0.17"/>
<circle cx="465.126" cy="209.232" r="4.51579" transform="rotate(180 465.126 209.232)" fill="#6651E7" fill-opacity="0.17"/>
<circle cx="465.126" cy="55.6947" r="4.51579" transform="rotate(180 465.126 55.6947)" fill="#6651E7" fill-opacity="0.17"/>
<circle cx="465.126" cy="158.053" r="4.51579" transform="rotate(180 465.126 158.053)" fill="#6651E7" fill-opacity="0.17"/>
<circle cx="465.126" cy="4.51571" r="4.51579" transform="rotate(180 465.126 4.51571)" fill="#6651E7" fill-opacity="0.17"/>
<circle cx="158.053" cy="260.41" r="4.51579" transform="rotate(180 158.053 260.41)" fill="#6651E7" fill-opacity="0.17"/>
<circle cx="158.053" cy="106.874" r="4.51579" transform="rotate(180 158.053 106.874)" fill="#6651E7" fill-opacity="0.17"/>
<circle cx="158.053" cy="209.232" r="4.51579" transform="rotate(180 158.053 209.232)" fill="#6651E7" fill-opacity="0.17"/>
<circle cx="158.053" cy="55.6948" r="4.51579" transform="rotate(180 158.053 55.6948)" fill="#6651E7" fill-opacity="0.17"/>
<circle cx="158.053" cy="158.053" r="4.51579" transform="rotate(180 158.053 158.053)" fill="#6651E7" fill-opacity="0.17"/>
<circle cx="158.053" cy="4.51583" r="4.51579" transform="rotate(180 158.053 4.51583)" fill="#6651E7" fill-opacity="0.17"/>
<circle cx="311.59" cy="260.41" r="4.51579" transform="rotate(180 311.59 260.41)" fill="#6651E7" fill-opacity="0.17"/>
<circle cx="311.59" cy="106.874" r="4.51579" transform="rotate(180 311.59 106.874)" fill="#6651E7" fill-opacity="0.17"/>
<circle cx="311.59" cy="209.232" r="4.51579" transform="rotate(180 311.59 209.232)" fill="#6651E7" fill-opacity="0.17"/>
<circle cx="311.589" cy="55.6947" r="4.51579" transform="rotate(180 311.589 55.6947)" fill="#6651E7" fill-opacity="0.17"/>
<circle cx="311.59" cy="158.053" r="4.51579" transform="rotate(180 311.59 158.053)" fill="#6651E7" fill-opacity="0.17"/>
<circle cx="311.589" cy="4.51571" r="4.51579" transform="rotate(180 311.589 4.51571)" fill="#6651E7" fill-opacity="0.17"/>
<circle cx="4.51577" cy="260.41" r="4.51579" transform="rotate(180 4.51577 260.41)" fill="#6651E7" fill-opacity="0.17"/>
<circle cx="4.51577" cy="106.874" r="4.51579" transform="rotate(180 4.51577 106.874)" fill="#6651E7" fill-opacity="0.17"/>
<circle cx="4.51577" cy="209.232" r="4.51579" transform="rotate(180 4.51577 209.232)" fill="#6651E7" fill-opacity="0.17"/>
<circle cx="4.51573" cy="55.6948" r="4.51579" transform="rotate(180 4.51573 55.6948)" fill="#6651E7" fill-opacity="0.17"/>
<circle cx="4.51577" cy="158.053" r="4.51579" transform="rotate(180 4.51577 158.053)" fill="#6651E7" fill-opacity="0.17"/>
<circle cx="4.51573" cy="4.51583" r="4.51579" transform="rotate(180 4.51573 4.51583)" fill="#6651E7" fill-opacity="0.17"/>
</svg>
