<svg width="572" height="265" viewBox="0 0 572 265" fill="none" xmlns="http://www.w3.org/2000/svg">
<circle cx="4.51579" cy="4.51579" r="4.51579" fill="#6651E7" fill-opacity="0.17"/>
<circle cx="4.51579" cy="158.053" r="4.51579" fill="#6651E7" fill-opacity="0.17"/>
<circle cx="4.51579" cy="55.6947" r="4.51579" fill="#6651E7" fill-opacity="0.17"/>
<circle cx="4.51579" cy="209.232" r="4.51579" fill="#6651E7" fill-opacity="0.17"/>
<circle cx="4.51579" cy="106.874" r="4.51579" fill="#6651E7" fill-opacity="0.17"/>
<circle cx="4.51579" cy="260.411" r="4.51579" fill="#6651E7" fill-opacity="0.17"/>
<circle cx="311.589" cy="4.51579" r="4.51579" fill="#6651E7" fill-opacity="0.17"/>
<circle cx="311.589" cy="158.053" r="4.51579" fill="#6651E7" fill-opacity="0.17"/>
<circle cx="311.589" cy="55.6947" r="4.51579" fill="#6651E7" fill-opacity="0.17"/>
<circle cx="311.589" cy="209.232" r="4.51579" fill="#6651E7" fill-opacity="0.17"/>
<circle cx="311.589" cy="106.874" r="4.51579" fill="#6651E7" fill-opacity="0.17"/>
<circle cx="311.589" cy="260.411" r="4.51579" fill="#6651E7" fill-opacity="0.17"/>
<circle cx="158.053" cy="4.51579" r="4.51579" fill="#6651E7" fill-opacity="0.17"/>
<circle cx="158.053" cy="158.053" r="4.51579" fill="#6651E7" fill-opacity="0.17"/>
<circle cx="158.053" cy="55.6947" r="4.51579" fill="#6651E7" fill-opacity="0.17"/>
<circle cx="158.053" cy="209.232" r="4.51579" fill="#6651E7" fill-opacity="0.17"/>
<circle cx="158.053" cy="106.874" r="4.51579" fill="#6651E7" fill-opacity="0.17"/>
<circle cx="158.053" cy="260.411" r="4.51579" fill="#6651E7" fill-opacity="0.17"/>
<circle cx="465.126" cy="4.51579" r="4.51579" fill="#6651E7" fill-opacity="0.17"/>
<circle cx="465.126" cy="158.053" r="4.51579" fill="#6651E7" fill-opacity="0.17"/>
<circle cx="465.126" cy="55.6947" r="4.51579" fill="#6651E7" fill-opacity="0.17"/>
<circle cx="465.126" cy="209.232" r="4.51579" fill="#6651E7" fill-opacity="0.17"/>
<circle cx="465.126" cy="106.874" r="4.51579" fill="#6651E7" fill-opacity="0.17"/>
<circle cx="465.126" cy="260.411" r="4.51579" fill="#6651E7" fill-opacity="0.17"/>
<circle cx="55.6947" cy="4.51579" r="4.51579" fill="#6651E7" fill-opacity="0.17"/>
<circle cx="55.6947" cy="158.053" r="4.51579" fill="#6651E7" fill-opacity="0.17"/>
<circle cx="55.6947" cy="55.6947" r="4.51579" fill="#6651E7" fill-opacity="0.17"/>
<circle cx="55.6947" cy="209.232" r="4.51579" fill="#6651E7" fill-opacity="0.17"/>
<circle cx="55.6947" cy="106.874" r="4.51579" fill="#6651E7" fill-opacity="0.17"/>
<circle cx="55.6947" cy="260.411" r="4.51579" fill="#6651E7" fill-opacity="0.17"/>
<circle cx="362.768" cy="4.51579" r="4.51579" fill="#6651E7" fill-opacity="0.17"/>
<circle cx="362.768" cy="158.053" r="4.51579" fill="#6651E7" fill-opacity="0.17"/>
<circle cx="362.768" cy="55.6947" r="4.51579" fill="#6651E7" fill-opacity="0.17"/>
<circle cx="362.768" cy="209.232" r="4.51579" fill="#6651E7" fill-opacity="0.17"/>
<circle cx="362.768" cy="106.874" r="4.51579" fill="#6651E7" fill-opacity="0.17"/>
<circle cx="362.768" cy="260.411" r="4.51579" fill="#6651E7" fill-opacity="0.17"/>
<circle cx="209.232" cy="4.51579" r="4.51579" fill="#6651E7" fill-opacity="0.17"/>
<circle cx="209.232" cy="158.053" r="4.51579" fill="#6651E7" fill-opacity="0.17"/>
<circle cx="209.232" cy="55.6947" r="4.51579" fill="#6651E7" fill-opacity="0.17"/>
<circle cx="209.232" cy="209.232" r="4.51579" fill="#6651E7" fill-opacity="0.17"/>
<circle cx="209.232" cy="106.874" r="4.51579" fill="#6651E7" fill-opacity="0.17"/>
<circle cx="209.232" cy="260.411" r="4.51579" fill="#6651E7" fill-opacity="0.17"/>
<circle cx="516.305" cy="4.51579" r="4.51579" fill="#6651E7" fill-opacity="0.17"/>
<circle cx="516.305" cy="158.053" r="4.51579" fill="#6651E7" fill-opacity="0.17"/>
<circle cx="516.305" cy="55.6947" r="4.51579" fill="#6651E7" fill-opacity="0.17"/>
<circle cx="516.305" cy="209.232" r="4.51579" fill="#6651E7" fill-opacity="0.17"/>
<circle cx="516.305" cy="106.874" r="4.51579" fill="#6651E7" fill-opacity="0.17"/>
<circle cx="516.305" cy="260.411" r="4.51579" fill="#6651E7" fill-opacity="0.17"/>
<circle cx="106.874" cy="4.51579" r="4.51579" fill="#6651E7" fill-opacity="0.17"/>
<circle cx="106.874" cy="158.053" r="4.51579" fill="#6651E7" fill-opacity="0.17"/>
<circle cx="106.874" cy="55.6947" r="4.51579" fill="#6651E7" fill-opacity="0.17"/>
<circle cx="106.874" cy="209.232" r="4.51579" fill="#6651E7" fill-opacity="0.17"/>
<circle cx="106.874" cy="106.874" r="4.51579" fill="#6651E7" fill-opacity="0.17"/>
<circle cx="106.874" cy="260.411" r="4.51579" fill="#6651E7" fill-opacity="0.17"/>
<circle cx="413.947" cy="4.51579" r="4.51579" fill="#6651E7" fill-opacity="0.17"/>
<circle cx="413.947" cy="158.053" r="4.51579" fill="#6651E7" fill-opacity="0.17"/>
<circle cx="413.947" cy="55.6947" r="4.51579" fill="#6651E7" fill-opacity="0.17"/>
<circle cx="413.947" cy="209.232" r="4.51579" fill="#6651E7" fill-opacity="0.17"/>
<circle cx="413.947" cy="106.874" r="4.51579" fill="#6651E7" fill-opacity="0.17"/>
<circle cx="413.947" cy="260.411" r="4.51579" fill="#6651E7" fill-opacity="0.17"/>
<circle cx="260.41" cy="4.51579" r="4.51579" fill="#6651E7" fill-opacity="0.17"/>
<circle cx="260.41" cy="158.053" r="4.51579" fill="#6651E7" fill-opacity="0.17"/>
<circle cx="260.41" cy="55.6947" r="4.51579" fill="#6651E7" fill-opacity="0.17"/>
<circle cx="260.41" cy="209.232" r="4.51579" fill="#6651E7" fill-opacity="0.17"/>
<circle cx="260.41" cy="106.874" r="4.51579" fill="#6651E7" fill-opacity="0.17"/>
<circle cx="260.41" cy="260.411" r="4.51579" fill="#6651E7" fill-opacity="0.17"/>
<circle cx="567.484" cy="4.51579" r="4.51579" fill="#6651E7" fill-opacity="0.17"/>
<circle cx="567.484" cy="158.053" r="4.51579" fill="#6651E7" fill-opacity="0.17"/>
<circle cx="567.484" cy="55.6947" r="4.51579" fill="#6651E7" fill-opacity="0.17"/>
<circle cx="567.484" cy="209.232" r="4.51579" fill="#6651E7" fill-opacity="0.17"/>
<circle cx="567.484" cy="106.874" r="4.51579" fill="#6651E7" fill-opacity="0.17"/>
<circle cx="567.484" cy="260.411" r="4.51579" fill="#6651E7" fill-opacity="0.17"/>
</svg>
