<svg width="45" height="42" viewBox="0 0 45 42" fill="none" xmlns="http://www.w3.org/2000/svg">
<path fill-rule="evenodd" clip-rule="evenodd" d="M12.568 3.33399L14.3043 3.14032V42H9.15036V3.70751L12.568 3.33399ZM24.061 21.7055C22.5452 21.7055 21.1395 21.7194 19.7339 21.6917C19.665 21.6917 19.6099 21.6917 19.5548 21.6917H19.5272C19.4859 21.6917 19.4445 21.7055 19.4032 21.7055H19.3894C19.3481 21.7194 19.3205 21.7332 19.2792 21.7332V21.747H19.2654C19.2516 21.747 19.2378 21.747 19.224 21.7609C19.1827 21.7747 19.1413 21.8024 19.1138 21.8162V21.83C19.0724 21.8577 19.0311 21.8854 19.0035 21.9407C18.976 21.9684 18.9622 21.996 18.9484 22.0237C18.9484 22.0375 18.9484 22.0375 18.9346 22.0514V22.0652C18.9209 22.0929 18.9071 22.1206 18.9071 22.1621C18.8933 22.1897 18.8933 22.2174 18.8933 22.2451C18.8795 22.2866 18.8795 22.3419 18.8657 22.3834V22.4387C18.8657 22.4802 18.8657 22.5217 18.8657 22.5632C18.8795 23.4901 18.8657 24.417 18.852 25.3577C18.852 25.8281 18.8382 26.2984 18.8382 26.7688V27.4466C18.8382 27.6818 18.8382 27.917 18.8382 28.1383C18.8382 30.5178 17.9286 31.8043 15.6686 32.0395H15.6548C15.5859 32.0534 15.517 32.1087 15.4619 32.1364V37.0059C15.5308 37.0059 15.5997 37.0059 15.6548 37.0059H15.9304V37.0198C16.082 37.0198 16.2474 37.0198 16.4128 37.0198V37.0059H16.523C16.5919 37.0059 16.647 37.0059 16.7159 37.0059V36.9921H16.8124C16.8813 36.9921 16.9502 36.9921 17.0053 36.9783H17.0191C17.0605 36.9783 17.1156 36.9644 17.1569 36.9644H17.1845C17.2121 36.9644 17.2534 36.9506 17.281 36.9506H17.3223C17.3499 36.9506 17.3774 36.9368 17.405 36.9368H17.4463C17.4739 36.9229 17.5014 36.9229 17.529 36.9229V36.9091H17.5566C17.5841 36.9091 17.6117 36.9091 17.6393 36.9091V36.8953H17.6668C17.6944 36.8953 17.7219 36.8953 17.7495 36.8814H17.7633C17.8184 36.8676 17.8597 36.8676 17.9149 36.8538H17.9424L17.9975 36.8399H18.0251L18.0802 36.8261V36.8123H18.094C18.1078 36.8123 18.1216 36.8123 18.1491 36.8123V36.7984H18.1767C18.1905 36.7984 18.2043 36.7984 18.218 36.7846H18.2456L18.2869 36.7707H18.3145C18.3283 36.7569 18.3558 36.7569 18.3696 36.7569L18.4385 36.7431V36.7292C18.4937 36.7154 18.5488 36.7016 18.6177 36.6877C18.6315 36.6877 18.6452 36.6739 18.659 36.6739H18.6728L18.7141 36.6601H18.7279L18.7693 36.6462V36.6324H18.783C18.7968 36.6324 18.8106 36.6324 18.8244 36.6324V36.6186H18.8382L18.8657 36.6047H18.8933L18.9209 36.5909H18.9346L18.976 36.5771H18.9898C19.0587 36.5494 19.1413 36.5217 19.2102 36.4941C19.2378 36.4802 19.2654 36.4664 19.2929 36.4664H19.3067C19.3205 36.4526 19.3481 36.4387 19.3756 36.4249L19.4032 36.4111H19.417L19.4583 36.3972L19.4859 36.3834H19.4996L19.541 36.3696V36.3557H19.5685V36.3419H19.5823H19.5961V36.3281H19.6099L19.6512 36.3142L19.6788 36.3004H19.6926C19.7615 36.2589 19.8304 36.2312 19.8993 36.2036L19.9268 36.1897C19.9406 36.1759 19.9406 36.1759 19.9544 36.1621L19.9957 36.1482L20.0371 36.1206H20.0509L20.0646 36.1067H20.0784L20.106 36.0929V36.079H20.1198H20.1336V36.0652H20.1473L20.1749 36.0514L20.2025 36.0375L20.23 36.0237C20.2989 35.9822 20.3678 35.9407 20.4229 35.913C20.4505 35.8992 20.4643 35.8854 20.4781 35.8715L20.5194 35.8439H20.5332L20.5608 35.83L20.5745 35.8162V35.8024H20.5883H20.6021V35.7885H20.6159L20.6572 35.7609L20.6986 35.7332H20.7123C20.7261 35.7194 20.7399 35.7055 20.7537 35.7055V35.6917C20.7675 35.6917 20.7812 35.6779 20.795 35.664H20.8088L20.8501 35.6364C20.8915 35.6087 20.9191 35.581 20.9604 35.5534L20.9742 35.5395V35.5257H20.988C21.0017 35.5257 21.0155 35.5119 21.0293 35.498L21.0431 35.4842C21.0706 35.4704 21.0844 35.4565 21.112 35.4427V35.4289H21.1258V35.415H21.1395L21.1671 35.3873L21.1947 35.3735L21.2084 35.3597C21.2222 35.3458 21.236 35.332 21.2498 35.3182L21.2636 35.3043H21.2773L21.2911 35.2905C21.36 35.2352 21.4289 35.166 21.4978 35.1107L21.5116 35.0968L21.5254 35.083H21.5392V35.0692V35.0553H21.553H21.5667V35.0415H21.5805V35.0277L21.5943 35.0138H21.6081V35H21.6219V34.9862H21.6356C21.7321 34.8893 21.8286 34.7925 21.9113 34.6956V34.6818H21.925L21.9388 34.668L21.9526 34.6541L21.9664 34.6403C21.9939 34.6126 22.0077 34.585 22.0353 34.5711V34.5573L22.0491 34.5435L22.0628 34.5296L22.0766 34.5158V34.502C22.1042 34.4881 22.118 34.4605 22.1455 34.4328L22.1593 34.419V34.4051L22.1731 34.3913C22.2282 34.336 22.2696 34.2806 22.3109 34.2391V34.2253C22.3247 34.2115 22.3385 34.1976 22.3522 34.17C22.366 34.1561 22.3798 34.1423 22.3936 34.1285V34.1146L22.4074 34.1008L22.4349 34.0593H22.4487V34.0455V34.0316C22.4625 34.0178 22.4763 34.004 22.49 33.9901L22.5176 33.9486V33.9348L22.5314 33.9209C22.5452 33.9071 22.559 33.8933 22.559 33.8794H22.5727C22.6003 33.8241 22.6279 33.7826 22.6692 33.7273L22.6968 33.6858V33.6719L22.7105 33.6581V33.6443C22.7243 33.6304 22.7381 33.6166 22.7381 33.6028H22.7519L22.7657 33.5751V33.5613L22.7794 33.5474L22.7932 33.5198L22.807 33.4921V33.4783H22.8208L22.8346 33.4368H22.8483L22.8621 33.4091L22.8897 33.3538L22.9035 33.3261C22.931 33.2846 22.9448 33.2431 22.9724 33.2016L22.9862 33.1739L22.9999 33.1462L23.0137 33.1186V33.1047H23.0275L23.0413 33.0909V33.0771L23.0551 33.0494L23.0688 33.0217V33.0079L23.0826 32.9941V32.9802L23.0964 32.9526H23.1102V32.9249V32.9111H23.124L23.1377 32.8834L23.1515 32.8557L23.1653 32.8142C23.1929 32.7589 23.2204 32.7036 23.248 32.6344L23.2755 32.5652V32.5514L23.2893 32.5237L23.3169 32.4822L23.3307 32.4407L23.3444 32.3992L23.3582 32.3715V32.3577L23.372 32.3162H23.3858V32.2747C23.3996 32.2609 23.3996 32.247 23.4134 32.2332C23.4271 32.1917 23.4409 32.1502 23.4547 32.1087V32.0949C23.4685 32.0534 23.496 32.0119 23.5098 31.9565C23.5098 31.9427 23.5236 31.9289 23.5236 31.915V31.9012L23.5374 31.8597L23.5512 31.8182V31.7905H23.5649V31.7628V31.749H23.5787L23.5925 31.7075V31.6937L23.6063 31.6522C23.6063 31.6245 23.6201 31.6107 23.6201 31.5968V31.583L23.6338 31.5415V31.5277C23.6476 31.5 23.6614 31.4723 23.6614 31.4308V31.417L23.689 31.3617V31.3478C23.689 31.334 23.689 31.3063 23.7027 31.2925L23.7165 31.2233L23.7303 31.1541L23.7441 31.085V31.0711H23.7579V31.0158H23.7716C23.7854 30.9051 23.813 30.8083 23.8268 30.7115V30.6976L23.8405 30.6285V30.6146C23.8543 30.6008 23.8543 30.5731 23.8681 30.5455V30.5178L23.8819 30.4486C23.8957 30.3518 23.9095 30.2549 23.9232 30.1581V30.1443L23.937 30.0474V30.0336H23.9508C23.9508 30.0059 23.9508 29.9644 23.9646 29.9368V29.9229C23.9646 29.8814 23.9646 29.8399 23.9784 29.8123V29.7984C23.9921 29.7016 23.9921 29.6186 24.0059 29.5356C24.0197 29.4802 24.0197 29.4249 24.0197 29.3696V29.3557C24.0335 29.3004 24.0335 29.2451 24.0335 29.2036V29.1897H24.0473C24.0473 29.0514 24.061 28.8992 24.0748 28.7609V28.7332C24.0748 28.6364 24.0886 28.5534 24.0886 28.4565C24.1024 28.3043 24.1024 28.1522 24.1024 28V27.9585C24.1575 25.8834 23.937 23.7945 24.061 21.7055ZM43.7123 0C43.7123 1.81225 43.7123 3.5415 43.7123 5.27075C43.7123 5.31225 43.7123 5.35375 43.7123 5.38142V5.40909C43.6985 5.43676 43.6847 5.46443 43.6847 5.47826H43.6709V5.49209C43.6709 5.49209 43.6572 5.50593 43.6572 5.51976C43.6572 5.51976 43.6434 5.51976 43.6434 5.5336C43.6296 5.54743 43.602 5.56126 43.5745 5.5751C43.5331 5.60277 43.478 5.6166 43.4091 5.63043H43.3953C43.3815 5.63043 43.3678 5.63043 43.354 5.63043C41.8657 5.79644 40.3911 5.96245 38.9166 6.12846L38.1035 6.21146L37.952 6.2253L37.3594 6.29447L37.2216 6.3083H37.2078L37.07 6.32213L36.6152 6.37747L36.4774 6.3913H36.4636L36.3258 6.40514L36.1742 6.41897L35.8711 6.46047L35.7333 6.47431H35.7195L35.5817 6.48814H35.5679L35.4301 6.50198L35.1269 6.54348L34.9753 6.55731L34.8375 6.57115H34.8237L34.3828 6.61265H34.369L34.2312 6.64032L33.7902 6.68182H33.7764L33.6386 6.69565H33.6248L33.0323 6.76482L32.7015 6.80632L32.4259 6.83399L31.9849 6.87549H31.9711L31.668 6.917L31.2132 6.9585C30.2899 7.05534 29.3666 7.15217 28.402 7.26285C28.4295 6.73715 28.4571 6.23913 28.4709 5.74111H28.4846V5.71344C28.4846 5.6166 28.4846 5.51976 28.4984 5.43676V5.40909C28.4984 5.32609 28.4984 5.22925 28.5122 5.13241V5.10474L28.526 4.8834V4.86957L28.5398 4.63439V4.62055L28.5535 4.41304V4.37154L28.5673 4.16403H28.5811V4.12253L28.5949 3.91502V3.88735L28.6087 3.67984V3.66601C28.6224 3.51383 28.6224 3.36166 28.6362 3.22332V3.20949L28.65 3.00198L28.6776 2.79447V2.78063L28.6913 2.58696V2.57312L28.7051 2.37945V2.35178L28.7189 2.1581V2.14427L28.7603 1.72925C30.8825 1.50791 32.9771 1.24506 35.0856 0.996047L35.4852 0.940711H35.499L35.7608 0.913043H35.7746C35.9951 0.885375 36.2156 0.857708 36.4499 0.83004L36.6704 0.802371L37.4145 0.719368L37.8417 0.664032L38.6823 0.567194L39.2473 0.498024L39.8123 0.442688C41.0802 0.290514 42.3618 0.152174 43.6572 0H43.7123V0ZM18.783 14.9545C18.7968 15.9229 18.8106 16.9051 18.8106 17.8735C18.8106 18.5375 18.8106 19.2016 18.8106 19.8379H24.0059C24.0059 19.2708 24.0197 18.7036 24.0197 18.1502C24.0335 17.6937 24.0335 17.251 24.0335 16.8083V16.753H24.0473C24.0473 16.3518 24.0473 15.9644 24.0473 15.5771H24.0335V15.0375C24.0335 14.8577 24.0335 14.6917 24.0335 14.5119H24.0197V14.2905C24.0197 14.2075 24.0197 14.1245 24.0197 14.0553H24.0059V13.8478C24.0059 13.751 24.0059 13.668 23.9921 13.585V13.502L23.9784 13.3498C23.9784 13.3221 23.9784 13.2945 23.9784 13.2668V13.2253C23.9784 13.1976 23.9646 13.1561 23.9646 13.1285V13.0455C23.9508 13.0178 23.9508 13.004 23.9508 12.9763H23.937V12.9071C23.937 12.8794 23.937 12.8518 23.937 12.8241H23.9232V12.7964C23.9232 12.7549 23.9232 12.7273 23.9095 12.6996V12.6858C23.9095 12.6581 23.8957 12.6304 23.8957 12.6028V12.5889C23.8957 12.5751 23.8819 12.5474 23.8819 12.5198V12.5059L23.8681 12.4506V12.4229L23.8543 12.3953H23.8405V12.3538V12.3261H23.8268V12.2846L23.813 12.2431V12.2154L23.7992 12.1739V12.1601L23.7854 12.1186V12.0909C23.7716 12.0356 23.7441 11.9941 23.7303 11.9387V11.9249L23.7165 11.8834L23.7027 11.8419V11.8281L23.689 11.7866V11.7727L23.6752 11.7589H23.6614V11.7312V11.7036H23.6476V11.6897V11.6621H23.6338V11.6482V11.6206H23.6201V11.5929L23.6063 11.5791V11.5514L23.5925 11.5237L23.5649 11.4822V11.4545H23.5512V11.4407C23.5236 11.3715 23.496 11.2885 23.4547 11.2194V11.2055H23.4409V11.1917L23.4271 11.1779V11.1502L23.4134 11.1364V11.1225L23.3996 11.1087H23.3858V11.081H23.372V11.0534V11.0395H23.3582V11.0257V11.0119H23.3444V10.998L23.3307 10.9704L23.3169 10.9427V10.9289L23.3031 10.915H23.2893V10.9012L23.2755 10.8735C23.2618 10.832 23.2342 10.8043 23.2204 10.7628C23.2066 10.749 23.1929 10.7352 23.1791 10.7213V10.7075L23.1515 10.666V10.6522L23.1377 10.6383L23.124 10.6245H23.1102V10.6107L23.0964 10.583V10.5692H23.0826V10.5553L23.0688 10.5415V10.5277H23.0551V10.5138L23.0413 10.4862L23.0275 10.4723H23.0137V10.4585L22.9999 10.4447L22.9862 10.4308V10.417V10.4032H22.9724V10.3893L22.9586 10.3755L22.9448 10.3617V10.3478L22.9035 10.3063C22.8759 10.2648 22.8483 10.2233 22.807 10.1818L22.7932 10.168V10.1542H22.7794V10.1403C22.7657 10.1265 22.7519 10.0988 22.7243 10.085L22.7105 10.0711V10.0573L22.6968 10.0435L22.683 10.0296V10.0158H22.6692V10.002L22.6416 9.98814L22.6279 9.97431V9.96047L22.6141 9.94664L22.6003 9.93281L22.5865 9.91897V9.90514H22.5727H22.559V9.8913H22.5452V9.87747C22.5176 9.8498 22.49 9.82213 22.4625 9.79447L22.4487 9.7668L22.4349 9.75296L22.3936 9.71146L22.3798 9.69763H22.366V9.68379L22.3522 9.66996L22.3385 9.65613L22.3247 9.64229L22.3109 9.62846C22.2833 9.60079 22.2558 9.58696 22.242 9.55929H22.2282V9.54545H22.2144V9.53162H22.2007H22.1869V9.51779H22.1731V9.50395H22.1593V9.49012L22.1455 9.47628L22.1317 9.46245L22.118 9.44862C22.0904 9.43478 22.0766 9.42095 22.0628 9.39328H22.0491L22.0353 9.37945L22.0215 9.36561L21.9939 9.35178C21.9664 9.32411 21.9388 9.29644 21.8975 9.26877C21.8837 9.25494 21.8561 9.24111 21.8424 9.22727V9.21344C21.8148 9.1996 21.801 9.18577 21.7735 9.17194L21.7597 9.1581L21.7321 9.14427H21.7183V9.13043V9.1166H21.7045L21.6908 9.10277L21.6632 9.08893L21.6494 9.0751H21.6356L21.6219 9.06126H21.6081V9.04743H21.5943V9.0336L21.5805 9.01976L21.553 9.00593H21.5392V8.99209H21.5254L21.4841 8.96443V8.95059L21.4427 8.92292H21.4289C21.4014 8.90909 21.3738 8.88142 21.3463 8.86759C21.3187 8.85375 21.3049 8.83992 21.2911 8.82609C21.2636 8.81225 21.236 8.79842 21.2084 8.78458L21.1809 8.77075H21.1671V8.75692L21.1533 8.74308L21.1258 8.72925L21.0982 8.71542L21.0706 8.70158H21.0569V8.68775H21.0431L21.0155 8.67391V8.66008L20.988 8.64625H20.9742L20.9604 8.63241H20.9466L20.9328 8.61858L20.9053 8.60474H20.8915L20.8777 8.59091H20.8639V8.57707L20.8364 8.56324L20.8088 8.54941H20.795C20.7399 8.52174 20.671 8.48024 20.6159 8.45257H20.6021L20.5883 8.43874H20.5745L20.547 8.4249L20.5194 8.41107H20.5056L20.4781 8.39723H20.4643V8.3834L20.4367 8.36957H20.4229L20.4092 8.35573H20.3954L20.3678 8.3419H20.3403V8.32806H20.3265H20.3127V8.31423H20.2851V8.3004H20.2438H20.23V8.28656L20.2162 8.27273H20.2025L20.1749 8.25889L20.1336 8.24506H20.1198C20.0784 8.23123 20.0371 8.21739 19.9957 8.18972L19.9544 8.17589H19.9406L19.8993 8.16206L19.8579 8.14822H19.8442L19.8166 8.13439H19.789V8.12055H19.7615H19.7477V8.10672L19.7064 8.09289H19.6788L19.6512 8.07905H19.6374L19.5961 8.06522H19.5823L19.541 8.05138L19.4859 8.03755C19.4307 8.00988 19.3618 7.99605 19.3067 7.98221H19.2929L19.2378 7.96838H19.2102L19.1689 7.95455H19.1413V7.94071H19.1H19.0724V7.92688L19.0173 7.91304H18.9898L18.9346 7.89921H18.9209L18.852 7.88537H18.8382L18.7693 7.87154H18.7555C18.7279 7.85771 18.7004 7.85771 18.6728 7.85771H18.659C18.6315 7.84387 18.6039 7.84387 18.5626 7.84387H18.5488V7.83004C18.5212 7.83004 18.4937 7.83004 18.4523 7.81621H18.4247C18.3834 7.81621 18.3558 7.81621 18.3283 7.80237H18.2869C18.2594 7.80237 18.218 7.78854 18.1905 7.78854H18.1629C18.0389 7.7747 17.9286 7.76087 17.8184 7.76087H17.7357V7.74704C17.6668 7.74704 17.5841 7.74704 17.5014 7.74704H17.4325V7.7332C17.1569 7.7332 16.8951 7.7332 16.6195 7.74704C16.523 7.74704 16.4266 7.74704 16.3301 7.74704V7.76087H16.2612C16.1923 7.76087 16.1234 7.76087 16.0545 7.7747H16.0131C15.9856 7.7747 15.9442 7.7747 15.9029 7.78854C15.7926 7.78854 15.6273 7.91304 15.517 8.05138C15.4619 8.12055 15.4343 8.18972 15.4206 8.24506V8.4249V8.49407C15.4068 8.78458 15.4068 9.08893 15.4068 9.39328V9.50395C15.393 10.4585 15.4068 11.4407 15.4068 12.4229C15.6135 12.4368 15.8064 12.4506 15.9718 12.4506C16.1096 12.4644 16.2474 12.4783 16.3852 12.4783C18.1216 12.5613 18.7693 13.2253 18.783 14.9545ZM0.0275613 20.5435H4.58896C4.58896 19.1739 4.57518 17.8735 4.60274 16.587C4.65786 13.9308 5.40202 13.1008 7.99279 12.7826C8.02035 12.7826 8.03413 12.7688 8.06169 12.7549C8.10303 12.7273 8.13059 12.6996 8.18572 12.6581V8.31423C8.17194 8.31423 8.14437 8.31423 8.13059 8.31423H8.10303C8.04791 8.3004 7.99279 8.3004 7.93766 8.3004H7.8412V8.28656C7.62071 8.27273 7.414 8.27273 7.19351 8.28656V8.3004H7.11082C7.0557 8.3004 6.9868 8.3004 6.93167 8.31423H6.91789C6.87655 8.31423 6.83521 8.31423 6.80765 8.32806H6.76631C6.73875 8.32806 6.71118 8.32806 6.66984 8.3419H6.64228C6.61472 8.3419 6.57338 8.35573 6.54582 8.35573H6.53203C6.47691 8.36957 6.40801 8.3834 6.35289 8.3834V8.39723H6.33911C6.32533 8.39723 6.29776 8.39723 6.2702 8.41107H6.25642L6.2013 8.4249H6.17374C6.15996 8.4249 6.14618 8.4249 6.11862 8.43874H6.10483L6.06349 8.45257H6.03593L5.98081 8.4664H5.96703C5.89812 8.49407 5.843 8.5079 5.78788 8.52174H5.7741C5.74654 8.53557 5.7052 8.53557 5.66385 8.54941L5.62251 8.56324H5.60873L5.56739 8.57707V8.59091H5.55361L5.51227 8.60474H5.49849L5.45714 8.61858L5.4158 8.63241H5.40202L5.36068 8.64625H5.3469C5.30556 8.67391 5.26421 8.68775 5.22287 8.70158H5.20909C5.18153 8.71541 5.16775 8.71541 5.14019 8.72925H5.12641L5.08507 8.74308L5.0575 8.75692V8.77075H5.04372L5.00238 8.78458L4.97482 8.79842H4.96104L4.9197 8.81225C4.89214 8.82609 4.86457 8.83992 4.83701 8.83992C4.75433 8.88142 4.67165 8.92292 4.58896 8.96443L4.54762 8.97826L4.52006 8.99209L4.4925 9.00593H4.47872L4.45116 9.01976L4.42359 9.0336V9.04743H4.40981H4.39603V9.06126H4.38225L4.35469 9.0751L4.32713 9.08893H4.31335L4.29957 9.10277H4.28579L4.25823 9.1166C4.18932 9.1581 4.12042 9.1996 4.05152 9.22727V9.24111H4.03773L4.02395 9.25494H4.01017C3.98261 9.26877 3.96883 9.28261 3.94127 9.29644H3.92749L3.89993 9.31028V9.32411L3.85859 9.35178H3.84481L3.81724 9.36561C3.78968 9.37945 3.76212 9.39328 3.74834 9.42095H3.73456C3.69322 9.44862 3.65188 9.46245 3.61053 9.49012V9.50395L3.56919 9.53162H3.55541C3.54163 9.54545 3.52785 9.54545 3.51407 9.55929C3.50029 9.57312 3.48651 9.58696 3.47273 9.58696V9.60079H3.45895L3.41761 9.62846L3.37626 9.65613H3.36248L3.3487 9.66996L3.30736 9.71146H3.29358C3.2798 9.7253 3.26602 9.7253 3.25224 9.73913C3.18333 9.79447 3.12821 9.83597 3.05931 9.87747V9.8913C3.03175 9.90514 3.01797 9.91897 2.9904 9.93281L2.97662 9.94664L2.9215 10.002H2.90772L2.89394 10.0158C2.86638 10.0296 2.8526 10.0435 2.83882 10.0711L2.82504 10.085H2.81126C2.78369 10.0988 2.75613 10.1265 2.74235 10.1403V10.1542C2.70101 10.1818 2.65967 10.2095 2.61833 10.251C2.5632 10.2925 2.50808 10.3478 2.45296 10.4032H2.43918L2.4254 10.417V10.4308H2.41162V10.4447L2.39784 10.4585L2.38406 10.4723H2.37027V10.4862H2.35649L2.34271 10.5C2.27381 10.583 2.19113 10.6522 2.12222 10.7213V10.7352L2.10844 10.749L2.09466 10.7628H2.08088L2.0671 10.7767L2.05332 10.7905V10.8043C2.01198 10.832 1.98442 10.8735 1.94307 10.915V10.9289L1.92929 10.9427L1.91551 10.9565L1.90173 10.9704C1.84661 11.0395 1.79149 11.1087 1.73636 11.164V11.1779L1.72258 11.1917L1.66746 11.247L1.65368 11.2747L1.62612 11.3162H1.61234L1.59856 11.33C1.58478 11.3577 1.571 11.3715 1.55722 11.3992C1.52965 11.413 1.51587 11.4407 1.50209 11.4545V11.4684C1.47453 11.5099 1.43319 11.5514 1.40563 11.5929L1.37807 11.6344V11.6482C1.36429 11.6621 1.35051 11.6759 1.35051 11.6897H1.33672L1.30916 11.7312V11.7451L1.2816 11.7866C1.26782 11.8004 1.25404 11.8142 1.25404 11.8281V11.8419H1.24026C1.24026 11.8557 1.22648 11.8696 1.2127 11.8834L1.18514 11.9387L1.17136 11.9664H1.15758C1.15758 11.9802 1.1438 11.9941 1.13001 12.0079V12.0217C1.10245 12.0771 1.06111 12.1186 1.03355 12.1739L1.01977 12.2016V12.2154L1.00599 12.2292V12.2431H0.992208C0.978427 12.2708 0.964647 12.2984 0.950866 12.3261L0.937085 12.3538L0.923305 12.3814V12.3953L0.909524 12.4091V12.4229L0.895743 12.4506H0.881963C0.840621 12.5474 0.799279 12.6304 0.757937 12.7134L0.744156 12.7411V12.7549C0.730375 12.7688 0.716595 12.7964 0.716595 12.8241H0.702814V12.8518V12.8656H0.689033L0.675253 12.8933L0.661472 12.9348V12.9486L0.647691 12.9763L0.633911 13.0178V13.0316H0.62013V13.0455V13.0593H0.606349C0.606349 13.087 0.592569 13.1146 0.578788 13.1423C0.578788 13.1561 0.565007 13.17 0.565007 13.1838C0.551227 13.2115 0.551227 13.2391 0.537446 13.2668L0.523665 13.3083V13.3221H0.509885L0.496104 13.3636L0.482323 13.4051V13.419L0.468543 13.4605L0.454762 13.502V13.5158L0.440981 13.5573L0.427201 13.6126C0.41342 13.6542 0.399639 13.6818 0.385859 13.7233C0.372078 13.7648 0.372078 13.7925 0.358297 13.834L0.344517 13.8893V13.9032C0.316955 13.9862 0.289394 14.0692 0.275613 14.1522V14.166L0.261833 14.2352L0.248052 14.3043C0.234271 14.332 0.234271 14.3597 0.220491 14.3874C0.20671 14.5119 0.179149 14.6225 0.165368 14.7332V14.747C0.151587 14.7747 0.151587 14.8024 0.151587 14.8439H0.137807C0.137807 14.9269 0.124026 14.996 0.110245 15.0652V15.0791C0.110245 15.1206 0.0964647 15.1621 0.0964647 15.2036V15.2174C0.0964647 15.2589 0.082684 15.3004 0.082684 15.3419V15.3557C0.0689033 15.4802 0.0551227 15.5909 0.0551227 15.7154V15.7431H0.041342C0.041342 15.8123 0.041342 15.8953 0.0275613 15.9783V15.9921C0.0275613 16.1028 0.0137807 16.2273 0.0137807 16.3518V16.3656C-0.0275613 17.749 0.0964647 19.1462 0.0275613 20.5435ZM8.1995 32.6067C8.1995 32.5514 8.1995 32.5099 8.1995 32.4822V32.4407C8.1995 32.3992 8.18572 32.3577 8.18572 32.33V32.3162C8.17194 32.2747 8.15815 32.2332 8.14437 32.2055V32.1917C8.14437 32.1917 8.14437 32.1779 8.13059 32.164V32.1502C8.11681 32.1225 8.08925 32.081 8.06169 32.0534C8.06169 32.0534 8.06169 32.0395 8.04791 32.0395C8.04791 32.0257 8.03413 32.0119 8.02035 31.998C7.99279 31.9842 7.97901 31.9704 7.95144 31.9565C7.93766 31.9427 7.9101 31.9289 7.89632 31.9289H7.88254V31.915C7.86876 31.915 7.8412 31.9012 7.81364 31.8873C7.78608 31.8873 7.77229 31.8735 7.74473 31.8735C7.71717 31.8597 7.68961 31.8597 7.67583 31.8597H7.66205C7.62071 31.8458 7.57937 31.8458 7.53802 31.8458H7.51046C7.4829 31.832 7.45534 31.832 7.42778 31.832C5.38824 31.749 4.78189 31.0988 4.74055 29.0375C4.71299 27.4743 4.74055 25.9111 4.71299 24.3478C4.71299 24.3063 4.71299 24.2787 4.71299 24.251V24.1541C4.71299 24.0988 4.71299 24.0296 4.69921 23.9605V23.8083C4.69921 23.753 4.68543 23.6976 4.68543 23.6423V23.5731C4.65787 23.1581 4.61652 22.7569 4.58896 22.3419H0.041342C0.041342 23.836 0 25.2885 0 26.7411V26.8379C0 27.253 0 27.6542 0.0137807 28.0553V28.1383C0.0137807 28.3043 0.0275613 28.4565 0.0275613 28.6225V28.6364C0.041342 28.7332 0.041342 28.8439 0.041342 28.9407H0.0551227V28.996C0.0551227 29.0929 0.0551227 29.1759 0.0689033 29.2727V29.3004V29.4249C0.0689033 29.4526 0.082684 29.4802 0.082684 29.5217V29.5494C0.082684 29.5909 0.082684 29.6462 0.0964647 29.6877V29.7569C0.0964647 29.7846 0.0964647 29.8261 0.110245 29.8538V29.9229C0.110245 29.9644 0.124026 30.0059 0.124026 30.0336V30.0751C0.137807 30.1166 0.137807 30.1581 0.137807 30.1996H0.151587V30.2134C0.151587 30.2964 0.165368 30.3656 0.179149 30.4486V30.4625L0.192929 30.5455V30.5731L0.20671 30.6423V30.67L0.220491 30.7391V30.7668L0.234271 30.836H0.248052V30.8636V30.9328H0.261833V30.9605L0.275613 31.0296V31.0435C0.289394 31.085 0.289394 31.1403 0.303175 31.1957C0.316955 31.2233 0.316955 31.251 0.316955 31.2787H0.330736V31.334H0.344517V31.3478L0.358297 31.4032V31.417L0.372078 31.4723V31.4862L0.385859 31.5277V31.5553L0.399639 31.5968V31.6245L0.41342 31.666H0.427201V31.6798C0.427201 31.7075 0.427201 31.7213 0.440981 31.749C0.454762 31.8182 0.482323 31.9012 0.496104 31.9704L0.509885 32.0257H0.523665C0.523665 32.0395 0.523665 32.0534 0.523665 32.0672H0.537446V32.081L0.551227 32.1225V32.1364L0.565007 32.164V32.1917L0.578788 32.2194V32.2332L0.592569 32.2609V32.2885L0.606349 32.3162H0.62013V32.33L0.633911 32.3715V32.3854C0.633911 32.3992 0.647691 32.413 0.647691 32.4269C0.675253 32.5237 0.716595 32.6067 0.744156 32.6897C0.757937 32.7174 0.757937 32.7451 0.771717 32.7727L0.785498 32.8004H0.799279V32.8142L0.813059 32.8557L0.82684 32.8834V32.8972L0.840621 32.9111V32.9387L0.854401 32.9664L0.868182 32.9941V33.0079L0.881963 33.0217H0.895743V33.0494L0.909524 33.0771L0.923305 33.1047V33.1186L0.937085 33.1462C0.964647 33.2154 0.992208 33.2707 1.01977 33.3261L1.03355 33.3538L1.04733 33.3814L1.07489 33.4229L1.08867 33.4506C1.08867 33.4644 1.10245 33.4783 1.11623 33.5059V33.5198L1.13001 33.5336V33.5474L1.1438 33.5613V33.5751L1.15758 33.6028H1.17136L1.18514 33.6304L1.19892 33.6581L1.2127 33.6719V33.6996L1.22648 33.7134V33.7273L1.24026 33.7411H1.25404V33.7549L1.26782 33.7826C1.2816 33.8103 1.29538 33.8379 1.30916 33.8518V33.8656C1.32294 33.8933 1.33672 33.9071 1.36429 33.9348L1.39185 33.9901C1.40563 34.004 1.40563 34.0178 1.41941 34.0316V34.0455L1.44697 34.0731V34.087H1.46075V34.1008L1.47453 34.1146L1.48831 34.1285V34.1423L1.50209 34.17L1.51587 34.1838V34.1976L1.54343 34.2115V34.2253H1.55722V34.2391L1.571 34.2668L1.58478 34.2806V34.2945C1.59856 34.3083 1.61234 34.3221 1.61234 34.336H1.62612C1.62612 34.3498 1.6399 34.3636 1.65368 34.3775C1.66746 34.4051 1.68124 34.419 1.69502 34.4466C1.72258 34.4605 1.73636 34.4881 1.75014 34.502V34.5158C1.76393 34.5296 1.77771 34.5573 1.79149 34.5711L1.80527 34.585H1.81905V34.5988H1.83283V34.6126C1.84661 34.6265 1.84661 34.6403 1.86039 34.6541L1.87417 34.668V34.6818H1.88795H1.90173V34.6956V34.7095H1.91551L1.94307 34.751L1.95685 34.7648V34.7787H1.97064V34.7925L1.98442 34.8063H1.9982C1.9982 34.8202 2.01198 34.834 2.02576 34.8478L2.03954 34.8617V34.8755H2.05332V34.8893L2.0671 34.9032C2.10844 34.9447 2.136 34.9723 2.16356 35.0138H2.17735L2.19113 35.0277L2.20491 35.0415L2.21869 35.0553V35.0692L2.23247 35.083L2.24625 35.0968L2.26003 35.1107H2.27381V35.1245H2.28759V35.1383H2.30137V35.1522H2.31515V35.166L2.32893 35.1798L2.34271 35.1937L2.35649 35.2075H2.37027V35.2213H2.38406V35.2352H2.39784V35.249L2.41162 35.2628L2.4254 35.2767L2.43918 35.2905H2.45296V35.3043H2.46674L2.48052 35.3182L2.4943 35.332L2.50808 35.3597C2.59077 35.4289 2.67345 35.498 2.74235 35.5672H2.75613L2.76991 35.581C2.78369 35.5949 2.81126 35.6087 2.82504 35.6364H2.83882L2.8526 35.6502L2.86638 35.664C2.88016 35.6779 2.89394 35.6779 2.90772 35.6917H2.9215V35.7055H2.93528V35.7194L2.94906 35.7332L2.96284 35.747H2.97662L2.9904 35.7609L3.00419 35.7747H3.01797L3.05931 35.8024V35.8162L3.07309 35.83C3.10065 35.8439 3.11443 35.8577 3.14199 35.8715C3.18333 35.8992 3.22468 35.9269 3.25224 35.9545C3.26602 35.9684 3.29358 35.9822 3.30736 35.9822V35.996L3.32114 36.0099H3.33492L3.3487 36.0237L3.37626 36.0375H3.39004L3.40382 36.0514L3.41761 36.0652H3.43139V36.079H3.44517V36.0929L3.47273 36.1067H3.48651C3.50029 36.1206 3.51407 36.1206 3.52785 36.1344L3.55541 36.1482H3.56919V36.1621H3.58297L3.59675 36.1897H3.61053C3.62431 36.2036 3.6381 36.2036 3.65188 36.2174H3.66566C3.72078 36.2589 3.78968 36.2866 3.85859 36.3281L3.88615 36.3419V36.3557H3.91371V36.3696L3.94127 36.3834H3.95505L3.96883 36.3972H3.98261L3.99639 36.4111H4.02395V36.4249H4.03773H4.05152V36.4387H4.0653L4.09286 36.4664L4.1342 36.4802L4.16176 36.4941L4.18932 36.5079L4.23066 36.5217L4.25823 36.5356C4.32713 36.5771 4.39603 36.6047 4.46494 36.6324C4.4925 36.6462 4.52006 36.6601 4.54762 36.6739L4.57518 36.6877H4.58896L4.61652 36.7016H4.6303V36.7154H4.65787H4.67165V36.7292H4.69921H4.71299V36.7431L4.74055 36.7569L4.78189 36.7707H4.79567L4.82323 36.7846L4.86457 36.7984L4.90592 36.8123V36.8261C4.93348 36.8261 4.96104 36.8399 4.9886 36.8538C5.07128 36.8814 5.14019 36.9091 5.22287 36.9368H5.23665L5.26421 36.9506H5.27799L5.31934 36.9644H5.33312L5.36068 36.9783H5.37446C5.38824 36.9921 5.40202 36.9921 5.4158 36.9921H5.42958V37.0059C5.44336 37.0059 5.45714 37.0059 5.47092 37.0059H5.49849V37.0198L5.52605 37.0336H5.53983L5.58117 37.0474H5.59495L5.63629 37.0613C5.71898 37.0889 5.78788 37.1028 5.87056 37.1304H5.88434L5.93947 37.1443L6.00837 37.1581H6.02215L6.06349 37.1719H6.09105V37.1858H6.1324H6.15996V37.1996C6.17374 37.1996 6.18752 37.1996 6.21508 37.2134H6.24264L6.28398 37.2273H6.29776L6.35289 37.2411H6.36667C6.39423 37.2411 6.42179 37.2549 6.43557 37.2549H6.44935C6.50447 37.2688 6.5596 37.2826 6.60094 37.2826H6.61472L6.6974 37.3103H6.71118L6.79387 37.3241H6.82143L6.89033 37.3379H6.91789L7.00058 37.3518H7.02814V37.3656H7.11082H7.1246V37.3794C7.16595 37.3794 7.19351 37.3794 7.22107 37.3933H7.23485C7.27619 37.3933 7.31753 37.3933 7.35888 37.4071C7.42778 37.4071 7.4829 37.4209 7.52424 37.4209H7.5518C7.57937 37.4209 7.60693 37.4209 7.63449 37.4209H7.68961C7.73095 37.4209 7.7723 37.4071 7.81364 37.4071C7.8412 37.3933 7.85498 37.3933 7.86876 37.3933H7.88254C7.89632 37.3794 7.9101 37.3794 7.92388 37.3656C7.93766 37.3656 7.93766 37.3656 7.95144 37.3518C7.97901 37.3518 7.99279 37.3379 8.00657 37.3241C8.03413 37.2964 8.06169 37.2688 8.08925 37.2411C8.10303 37.2134 8.11681 37.1858 8.13059 37.1581C8.14437 37.1443 8.14437 37.1443 8.14437 37.1304C8.15815 37.1166 8.15815 37.0889 8.15815 37.0751C8.17194 37.0613 8.17194 37.0336 8.18572 37.0059V36.9921C8.18572 36.9644 8.1995 36.9368 8.1995 36.8953C8.1995 36.8261 8.1995 36.7569 8.1995 36.6739C8.17193 35.3182 8.17193 33.9624 8.1995 32.6067ZM35.0718 35.8854C33.8178 35.747 33.1563 34.5296 33.1149 33.3399C33.0598 31.8874 33.0323 30.4486 33.0047 29.0099C33.0047 28.9407 33.0047 28.8854 33.0047 28.83C32.9771 28.6779 32.922 28.581 32.798 28.5395H32.7842C32.7153 28.5119 32.6326 28.498 32.5224 28.5119C31.1167 28.5534 29.6973 28.581 28.2917 28.5949C28.2366 28.5949 28.1815 28.5949 28.1401 28.6087H28.1263C28.0712 28.6225 28.0161 28.6364 27.9748 28.664C27.961 28.6779 27.9472 28.7055 27.9334 28.7194C27.8921 28.7609 27.8783 28.83 27.8645 28.8992V28.913C27.8507 28.9684 27.8507 29.0237 27.8507 29.0791C27.8783 29.6324 27.8783 30.1858 27.8783 30.7391V31.002C27.8783 31.2648 27.8921 31.5138 27.8921 31.7767V31.8043V31.832C27.9196 32.3439 27.9196 32.8419 27.9196 33.3538H27.9334V33.4506C27.9334 33.6443 27.9334 33.8518 27.9472 34.0593V34.1008C27.9472 34.1976 27.9472 34.2806 27.961 34.3775V34.502C27.961 34.5711 27.961 34.6403 27.9748 34.7095V34.7925C27.9885 34.917 27.9885 35.0415 28.0023 35.1522V35.2075L28.0161 35.3043H28.0299V35.3873V35.4565H28.0437V35.5257V35.581H28.0574V35.664L28.0712 35.7332V35.7885L28.085 35.8715V35.913C28.0988 35.9407 28.0988 35.9684 28.0988 36.0099H28.1126V36.0514C28.1126 36.0929 28.1263 36.1344 28.1401 36.1897V36.2036L28.1539 36.2589V36.3004L28.1677 36.3419V36.3834L28.1815 36.4249V36.4526L28.1952 36.5079H28.209V36.5356L28.2228 36.5909V36.6047C28.2366 36.6601 28.2504 36.7292 28.2641 36.7846V36.7984L28.2779 36.8538L28.2917 36.8953H28.3055V36.9091V36.9506H28.3193V36.9783L28.333 37.0059V37.0336L28.3468 37.0613V37.0751L28.3606 37.1166V37.1304L28.3744 37.1719H28.3882V37.1858V37.2273H28.402L28.4157 37.2688V37.2826C28.4295 37.3103 28.4295 37.3379 28.4433 37.3656V37.3794L28.4571 37.4209L28.4709 37.4486H28.4846V37.4624L28.4984 37.504V37.5316H28.5122V37.5455L28.526 37.587L28.5398 37.6146V37.6285L28.5535 37.6561V37.67L28.5673 37.6976H28.5811V37.7115L28.5949 37.7391V37.753L28.6087 37.7806V37.7945C28.6224 37.8083 28.6224 37.836 28.6362 37.8636C28.6776 37.9328 28.7051 38.002 28.7327 38.0711L28.7603 38.0988L28.774 38.1403V38.1541H28.7878V38.168V38.1818H28.8016V38.1957L28.8154 38.2095V38.2372L28.8292 38.251V38.2648L28.8429 38.2787H28.8567V38.2925V38.3202H28.8705L28.8843 38.3478L28.8981 38.3755C28.9256 38.417 28.9394 38.4585 28.967 38.4862V38.5C28.9807 38.5138 28.9945 38.5415 29.0083 38.5692L29.0359 38.6245H29.0496L29.0772 38.666V38.6798L29.091 38.7075L29.1048 38.7213V38.7352L29.1185 38.749H29.1323V38.7628H29.1461V38.7767L29.1599 38.8043L29.1737 38.8182V38.832L29.1875 38.8458L29.2012 38.8597V38.8735L29.2288 38.9012V38.915H29.2426V38.9289L29.2701 38.9704L29.2977 39.0119H29.3115C29.3253 39.0395 29.339 39.0534 29.3528 39.081C29.3666 39.0949 29.3804 39.1225 29.4079 39.1364V39.164H29.4217V39.1779H29.4355C29.4493 39.1917 29.4493 39.2055 29.4631 39.2194L29.4768 39.247L29.4906 39.2609H29.5044V39.2747H29.5182V39.2885L29.5457 39.3162V39.33L29.5595 39.3439L29.5733 39.3577L29.5871 39.3715H29.6009V39.3854L29.6284 39.413L29.6422 39.4407L29.656 39.4545L29.6698 39.4684H29.6836C29.7249 39.5237 29.7662 39.5652 29.8076 39.6206L29.8214 39.6344L29.8351 39.6482L29.8489 39.6621L29.8627 39.6759H29.8765L29.8903 39.6897V39.7036L29.904 39.7174L29.9178 39.7312L29.9316 39.7451L29.9454 39.7589H29.9592L29.9729 39.7727L29.9867 39.7866V39.8004C30.0281 39.8281 30.0694 39.8696 30.1108 39.9111L30.1245 39.9249L30.1383 39.9387H30.1521L30.1659 39.9526L30.1797 39.9664V39.9802C30.2072 39.9941 30.2348 40.0217 30.2761 40.0494V40.0632H30.2899V40.0771C30.3175 40.0909 30.3312 40.1047 30.345 40.1186H30.3588L30.3726 40.1324L30.4139 40.1739H30.4277V40.1877H30.4415L30.4553 40.2016L30.4691 40.2154H30.4828V40.2292H30.4966V40.2431H30.5104H30.5242V40.2569L30.5517 40.2846H30.5655L30.5793 40.2984L30.6206 40.3261H30.6344V40.3399H30.6482V40.3538L30.6895 40.3814H30.7033L30.7584 40.4229L30.8136 40.4644L30.8549 40.4921L30.8825 40.5059H30.8963V40.5198H30.91L30.9376 40.5474L30.9789 40.5751H30.9927L31.0065 40.5889H31.0203V40.6028H31.0341L31.0616 40.6166H31.0754V40.6304L31.1167 40.6581L31.1443 40.6719H31.1581L31.1994 40.6996C31.2545 40.7273 31.2959 40.7549 31.351 40.7826L31.3786 40.7964V40.8103L31.4061 40.8241L31.4337 40.8379H31.4475L31.4613 40.8518H31.475L31.5026 40.8656L31.5302 40.8794H31.5439V40.8933H31.5577H31.5715V40.9071L31.5991 40.9209L31.6266 40.9348H31.6404L31.6542 40.9486H31.668L31.6955 40.9624C31.7644 41.004 31.8333 41.0316 31.9022 41.0593H31.916L31.9436 41.0731L31.9849 41.1008H31.9987L32.0263 41.1146L32.0952 41.1423H32.1089L32.1365 41.1561L32.1779 41.17H32.1916V41.1838L32.2192 41.1976L32.2605 41.2115H32.2743C32.3708 41.253 32.4672 41.2806 32.5775 41.3221L32.6188 41.336L32.674 41.3498C32.798 41.3913 32.922 41.4328 33.046 41.4743L33.1012 41.4881H33.1149L33.1563 41.502H33.1701L33.2252 41.5158L33.2803 41.5296H33.2941L33.3492 41.5435V41.5573L33.4181 41.5711C33.4595 41.5711 33.5008 41.585 33.5421 41.5988L33.6248 41.6126L33.6937 41.6265L33.7626 41.6403H33.7764V41.6541L33.8453 41.668H33.8591L33.9142 41.6818H33.928L33.9969 41.6956C34.0934 41.7095 34.1761 41.7233 34.2587 41.751L34.3552 41.7648L34.4517 41.7787L34.5481 41.7925L34.6446 41.8063C34.7548 41.834 34.8651 41.8478 34.9753 41.8617H34.9891L35.0994 41.8755C35.182 41.8893 35.2647 41.9032 35.3474 41.9032C35.3474 40.2154 35.3612 38.583 35.3474 36.9644V36.8399C35.3474 36.6186 35.3474 36.3972 35.3474 36.1897C35.3474 36.1759 35.3336 36.1482 35.3336 36.1344C35.3198 36.1067 35.3061 36.079 35.2923 36.0514H35.2785C35.2509 35.996 35.1958 35.9545 35.1545 35.9269C35.1407 35.913 35.1407 35.913 35.1269 35.913V35.8992C35.0994 35.8992 35.0856 35.8992 35.0718 35.8854ZM33.0185 23.8498C33.0874 20.8755 33.1563 17.915 33.239 14.9407C33.2665 13.9308 33.3079 12.9071 33.3354 11.8972V11.8834L33.3492 11.4269V11.3854L33.3768 10.9289V10.9012L33.3906 10.4308V10.3893C33.3906 10.2233 33.4043 10.0573 33.4043 9.8913V9.8498C33.4181 9.35178 33.4043 8.83992 33.4043 8.31423C33.1701 8.31423 32.9909 8.31423 32.8255 8.32806C32.7015 8.32806 32.5775 8.32806 32.4535 8.3419H32.4397L32.1503 8.35573H32.1365L31.8609 8.36957L31.5715 8.39723C30.6758 8.43874 29.7662 8.49407 28.8705 8.50791C28.8429 8.50791 28.8016 8.52174 28.774 8.52174H28.7465C28.7189 8.52174 28.6913 8.53557 28.65 8.53557C28.5673 8.54941 28.5122 8.57708 28.4571 8.61858C28.4571 8.61858 28.4571 8.63241 28.4433 8.63241C28.4295 8.64624 28.4157 8.66008 28.402 8.68775C28.3744 8.71542 28.3468 8.75692 28.333 8.81225C28.3193 8.83992 28.3193 8.85375 28.3193 8.88142C28.3055 8.90909 28.3055 8.95059 28.3055 8.99209C28.2917 9.0336 28.2917 9.0751 28.2917 9.1166C28.2779 9.8498 28.2504 10.5968 28.2228 11.33C28.209 11.5237 28.209 11.7174 28.1952 11.9111L28.1401 13.502V13.5158L28.1263 13.9447V13.9585L28.1126 14.3874H28.0988L28.085 14.8162V14.83L28.0712 15.2589V15.2866L28.0574 15.7016V15.7292L28.0437 16.1443V16.1581L28.0299 16.5731V16.6008L28.0023 17.0158V17.0573L27.9885 17.4585V17.5L27.9748 17.9012V17.9427L27.961 18.3439V18.3992L27.9472 18.7866V18.8281L27.9334 19.2292V19.2708H27.9196L27.9058 19.6719V19.7134L27.8921 20.1285V20.17L27.8783 20.5711V20.5988L27.8645 21.0138V21.0415L27.8507 21.4704V21.4842L27.8369 21.913V21.9407H27.8232L27.8094 22.3696V22.3834L27.7956 22.9644C27.7818 23.4486 27.7956 23.9328 27.7956 24.5138L29.9729 24.4447C30.8825 24.417 31.7782 24.3755 32.6877 24.3478C32.7015 24.3478 32.7153 24.3478 32.7429 24.3478H32.7566C32.7842 24.334 32.798 24.334 32.8255 24.334C32.8944 24.3063 32.9358 24.2648 32.9634 24.2095C32.9771 24.2095 32.9771 24.1957 32.9771 24.1818C32.9909 24.168 32.9909 24.1542 33.0047 24.1403V24.1265C33.0185 24.0573 33.0185 23.9466 33.0185 23.8498ZM44.9939 30.7806C44.9939 29.9921 44.9939 29.2036 44.9939 28.415H44.9801V28.0968C44.9801 27.419 44.9801 26.7273 44.9663 26.0494V25.9249C44.9663 25.6482 44.9663 25.3715 44.9663 25.0949H44.9525V24.5277V24.1126H44.9388V23.5178L44.925 23.1581V22.7016C44.9112 22.5356 44.9112 22.3557 44.9112 22.1759V22.0237L44.8974 21.7055C44.8974 21.6364 44.8974 21.5672 44.8836 21.498V21.4427C44.8836 21.3182 44.8836 21.2075 44.8699 21.0968V21.0277C44.8699 20.917 44.8561 20.8063 44.8561 20.6957C44.8561 20.6265 44.8423 20.5573 44.8423 20.4881V20.4328C44.8423 20.3775 44.8285 20.3221 44.8285 20.2668V20.2115C44.8147 20.1561 44.8147 20.1008 44.8147 20.0455H44.8009V20.004C44.8009 19.9486 44.8009 19.8933 44.7872 19.8379V19.8241C44.7872 19.7688 44.7872 19.7134 44.7734 19.6581C44.7734 19.6166 44.7734 19.5751 44.7596 19.5336V19.5059L44.7458 19.3953V19.3538L44.732 19.2708V19.2292L44.7183 19.1462H44.7045V19.1047V19.0079H44.6907V18.9802L44.6769 18.8834V18.8696C44.6631 18.8004 44.6631 18.7312 44.6494 18.6621L44.6356 18.5929V18.5652L44.6218 18.5099H44.608V18.4684V18.413H44.5942V18.3715V18.33H44.5805V18.2885L44.5667 18.247V18.2055L44.5529 18.164V18.1225L44.5391 18.0672H44.5253V18.0395V17.9842H44.5115V17.9704L44.4978 17.9012L44.484 17.8182L44.4702 17.7628V17.749L44.4564 17.6937L44.4426 17.6245H44.4289L44.4151 17.5692V17.5553L44.4013 17.5C44.3875 17.417 44.36 17.3478 44.3324 17.2648C44.3186 17.1957 44.2911 17.1265 44.2773 17.0573L44.2635 17.0158C44.2359 16.9328 44.2084 16.8636 44.1808 16.7806C44.1533 16.7391 44.1395 16.6976 44.1257 16.6561C44.1119 16.6285 44.1119 16.6008 44.0981 16.5731C44.0843 16.5316 44.0706 16.4901 44.043 16.4625V16.4486C43.9603 16.2411 43.8639 16.0474 43.7536 15.8538C43.6985 15.7569 43.6434 15.6739 43.5882 15.5771L43.5607 15.5356V15.5217C43.5193 15.4664 43.478 15.3972 43.4367 15.3419V15.3281C43.4091 15.3004 43.3815 15.2589 43.354 15.2174C43.3402 15.2036 43.3126 15.1759 43.2989 15.1621C43.2575 15.1067 43.2162 15.0514 43.1748 14.996L43.161 14.9822V14.9684C43.1335 14.9407 43.1059 14.913 43.0784 14.8854V14.8715C42.9406 14.7332 42.8027 14.5949 42.6512 14.4565L42.6374 14.4427C42.5685 14.3874 42.5134 14.332 42.4444 14.2767C42.4169 14.2628 42.4031 14.249 42.3893 14.2352H42.3755V14.2213L42.3618 14.2075C42.2929 14.1522 42.2102 14.0968 42.1413 14.0553C42.0999 14.0277 42.0586 14 42.0035 13.9723L41.9621 13.9308C41.9346 13.917 41.907 13.9032 41.8794 13.8893C41.8243 13.8617 41.783 13.834 41.7279 13.8063L41.7003 13.7925L41.6727 13.7787H41.659V13.7648C41.6038 13.7372 41.5349 13.7095 41.4798 13.6818H41.466V13.668L41.4385 13.6541C41.3971 13.6403 41.3696 13.6265 41.3282 13.6126L41.3007 13.5988H41.2869C41.2455 13.5711 41.1904 13.5573 41.1353 13.5296C41.0939 13.5158 41.0526 13.502 40.9975 13.4881V13.4743L40.9561 13.4605L40.9148 13.4466H40.901C40.8735 13.4328 40.8459 13.4328 40.8183 13.419C40.7908 13.4051 40.777 13.4051 40.7632 13.4051C40.7219 13.3913 40.6943 13.3775 40.653 13.3636H40.6392C40.6254 13.3636 40.6116 13.3498 40.5978 13.3498C40.5703 13.3498 40.5565 13.336 40.5427 13.336H40.5289C40.4463 13.3083 40.3636 13.2945 40.2809 13.2668H40.2671C40.2533 13.2668 40.2258 13.253 40.1982 13.253H40.1844C40.1706 13.2391 40.1431 13.2391 40.1293 13.2391H40.1155C40.0191 13.2115 39.9364 13.1976 39.8537 13.1838H39.8399C39.7986 13.1838 39.771 13.17 39.7434 13.17H39.7159C39.6883 13.17 39.647 13.1561 39.6056 13.1561C39.5505 13.1561 39.4954 13.1423 39.4403 13.1423H39.4127C39.33 13.1285 39.2611 13.1285 39.1784 13.1285H39.1646C39.0682 13.1146 38.9579 13.1146 38.8477 13.1146V13.1285H38.7512C38.6685 13.1285 38.5996 13.1285 38.517 13.1423H38.4756C38.3929 13.1423 38.2965 13.1561 38.2 13.17H38.1862C38.1587 13.1838 38.1173 13.1838 38.0898 13.1838H38.076C38.0071 13.1976 37.952 13.2115 37.8968 13.2253H37.883C37.8555 13.2253 37.8417 13.2253 37.8141 13.2391H37.8004C37.7728 13.2391 37.759 13.253 37.7315 13.253C37.7039 13.253 37.6901 13.2668 37.6626 13.2668H37.6488C37.5661 13.2945 37.4834 13.3083 37.4007 13.336C37.3732 13.336 37.3594 13.3498 37.3456 13.3498H37.3318L37.2905 13.3636H37.2767C37.2491 13.3775 37.2078 13.3913 37.1802 13.4051C37.1389 13.4051 37.1113 13.419 37.0838 13.4328H37.07L37.0286 13.4466L36.9873 13.4605C36.9184 13.4881 36.8633 13.502 36.8082 13.5296C36.753 13.5573 36.6979 13.5711 36.6428 13.5988C36.6152 13.5988 36.5877 13.6126 36.5601 13.6265C36.5188 13.6403 36.4912 13.6542 36.4499 13.6818C36.381 13.7095 36.3121 13.7372 36.2431 13.7787L36.2018 13.7925L36.1742 13.8063L36.1467 13.8202H36.1329L36.1053 13.834L36.0778 13.8478V13.8617L36.0089 13.8893C35.9538 13.917 35.8986 13.9447 35.8297 13.9862L35.8022 14C35.7608 14.0277 35.7195 14.0415 35.6919 14.0692C35.6368 14.0968 35.5817 14.1245 35.5266 14.166C35.499 14.1798 35.4714 14.1937 35.4439 14.2075C35.4025 14.2352 35.3612 14.2628 35.3198 14.2905C35.2785 14.3182 35.2509 14.332 35.2234 14.3597H35.2096L35.1683 14.3874L35.1269 14.4289H35.1131L35.0718 14.4565C35.0167 14.498 34.9615 14.5257 34.9064 14.5672C34.8513 14.6087 34.7962 14.6502 34.7273 14.7055L34.6722 14.747C34.6446 14.7747 34.617 14.7885 34.5895 14.8024C34.5343 14.8439 34.493 14.913 34.4517 14.9822C34.4379 15.0099 34.4379 15.0237 34.4241 15.0514V15.0652C34.4103 15.0929 34.4103 15.1206 34.4103 15.1344V15.4526V15.7569C34.3965 16.9743 34.3965 18.1917 34.3965 19.4091C34.4517 19.3953 34.5206 19.3814 34.5757 19.3676L34.6446 19.3538C34.6997 19.3399 34.7548 19.3261 34.7962 19.3261C35.3198 19.2016 35.8159 19.0771 36.3121 19.0356C37.1251 18.9664 37.9106 19.1324 38.3792 19.9209C38.8615 20.6957 39.1646 21.5534 39.1646 22.4664C39.1922 25.9526 39.1922 29.4387 39.1646 32.9111C39.1646 34.4466 38.3516 35.4704 36.9322 35.9684H36.9184C36.9046 35.9822 36.8908 35.9822 36.8908 35.9822H36.8771C36.7944 36.0375 36.6979 36.1344 36.6566 36.2312C36.6566 36.2451 36.6428 36.2727 36.6428 36.2866C36.6428 37.6838 36.6566 39.0949 36.6566 40.4921V40.5198L36.6704 41.4328C36.6704 41.6265 36.7255 41.751 36.8495 41.8063C36.8908 41.8202 36.9184 41.834 36.9597 41.8478H36.9735C37.0011 41.8478 37.0424 41.8478 37.0976 41.8478C37.2078 41.8478 37.318 41.8478 37.4421 41.8478H37.5523C37.6074 41.834 37.6763 41.834 37.7452 41.834V41.8202H37.7728C37.8141 41.8202 37.8555 41.8202 37.8968 41.8202V41.8063H37.9244C37.952 41.8063 37.9933 41.8063 38.0209 41.7925H38.0622C38.0898 41.7925 38.1311 41.7787 38.1724 41.7787C38.2413 41.7648 38.2965 41.751 38.3654 41.751C38.3929 41.7372 38.4205 41.7372 38.4343 41.7372V41.7233H38.4618C38.4756 41.7233 38.5032 41.7233 38.517 41.7095H38.5307C38.5583 41.7095 38.5859 41.7095 38.5996 41.6956H38.6134L38.6823 41.6818C38.7512 41.668 38.8201 41.6541 38.8753 41.6403V41.6265H38.889L38.9442 41.6126L38.9855 41.5988H39.0131L39.0544 41.585H39.0682C39.082 41.5711 39.1095 41.5711 39.1233 41.5711L39.1646 41.5573V41.5435H39.1784C39.2198 41.5435 39.2473 41.5296 39.2887 41.5158C39.3162 41.502 39.3438 41.502 39.3851 41.4881L39.4265 41.4743L39.4816 41.4466C39.5092 41.4466 39.5367 41.4328 39.5643 41.419L39.6056 41.4051H39.6194L39.6608 41.3913L39.6883 41.3775H39.7021L39.7434 41.3636V41.3498C39.8261 41.3221 39.895 41.2945 39.9777 41.253L40.0191 41.2391L40.0466 41.2253H40.0604C40.0742 41.2115 40.1017 41.1976 40.1293 41.1976L40.1569 41.1838V41.17H40.1706L40.1844 41.1561H40.1982L40.2258 41.1423H40.2395C40.3498 41.087 40.46 41.0316 40.5841 40.9624L40.6116 40.9486H40.6254L40.6392 40.9348H40.653L40.6805 40.9209C40.7219 40.8933 40.7494 40.8794 40.7908 40.8518L40.8183 40.8379C40.8735 40.7964 40.9286 40.7688 40.9837 40.7411C40.9975 40.7273 41.0113 40.7134 41.0388 40.7134V40.6996L41.0664 40.6858L41.1077 40.6581H41.1215L41.1628 40.6304V40.6166L41.218 40.5889L41.2593 40.5613H41.2731C41.3282 40.5198 41.3971 40.4783 41.4522 40.4229C41.4798 40.4091 41.4936 40.3953 41.5211 40.3814L41.5625 40.3399H41.59V40.3261L41.6314 40.2984L41.6452 40.2846H41.659L41.7003 40.2431H41.7141V40.2292C41.7416 40.2154 41.7554 40.2016 41.783 40.1877C41.8381 40.1462 41.8932 40.1047 41.9346 40.0494H41.9483L41.9621 40.0356C41.9897 40.0217 42.0173 39.9941 42.031 39.9664H42.0448L42.0586 39.9526L42.0724 39.9387C42.0999 39.9111 42.1413 39.8834 42.1688 39.8557L42.1826 39.8419L42.1964 39.8281H42.2102C42.2653 39.7727 42.3204 39.7174 42.3755 39.6621L42.3893 39.6482L42.4031 39.6344H42.4169L42.4307 39.6206L42.4444 39.6067V39.5929L42.4582 39.579L42.472 39.5652L42.4858 39.5514H42.4996L42.5134 39.5375L42.5271 39.5237L42.5409 39.5099V39.496L42.5547 39.4822L42.5685 39.4684L42.5823 39.4545H42.596L42.6098 39.4407L42.6236 39.413C42.6787 39.3577 42.7338 39.3024 42.789 39.247L42.8027 39.2332V39.2194C42.8303 39.1917 42.8579 39.164 42.8854 39.1364V39.1225L42.8992 39.1087L42.913 39.0949C42.9406 39.0672 42.9543 39.0395 42.9819 39.0257V39.0119L42.9957 38.998C43.037 38.9427 43.0784 38.8873 43.1197 38.832C43.1473 38.8182 43.161 38.7905 43.1748 38.7767V38.7628L43.1886 38.749L43.2162 38.7075H43.2299V38.6937L43.2713 38.6383L43.3126 38.583V38.5692L43.354 38.5277L43.3953 38.4585C43.4229 38.4308 43.4367 38.3893 43.4642 38.3617C43.478 38.3478 43.4918 38.334 43.4918 38.3202L43.5056 38.2925V38.2787H43.5193L43.5469 38.2372C43.5607 38.2233 43.5607 38.1957 43.5745 38.1818L43.5882 38.1541H43.602L43.6296 38.1126V38.0988L43.6572 38.0573L43.6709 38.0296V38.0158C43.7261 37.9466 43.7674 37.8775 43.8087 37.7945L43.8225 37.7668L43.8363 37.7391V37.7253L43.8501 37.6976L43.8639 37.67V37.6561H43.8776V37.6423V37.6285H43.8914L43.9052 37.6008L43.919 37.5731V37.5593L43.9328 37.5455V37.5316C43.9603 37.4901 43.9741 37.4486 44.0017 37.4071C44.0154 37.3656 44.0292 37.3241 44.043 37.2964V37.2826L44.0568 37.2549L44.0843 37.2134L44.0981 37.1858V37.1719L44.1119 37.1443V37.1304L44.1257 37.1028V37.0889C44.1395 37.0751 44.1533 37.0474 44.1533 37.0198V37.0059H44.167C44.167 36.9921 44.1808 36.9644 44.1946 36.9368C44.1946 36.9229 44.1946 36.9091 44.2084 36.8953C44.2222 36.8399 44.2497 36.7707 44.2773 36.7016L44.2911 36.6601V36.6324L44.3048 36.6047V36.5909L44.3186 36.5632V36.5356H44.3324V36.5079V36.4941H44.3462L44.36 36.4526V36.4387L44.3737 36.4111V36.3972L44.3875 36.3557V36.3419L44.4013 36.3004C44.4289 36.2174 44.4426 36.1482 44.4702 36.079V36.0652L44.484 36.0099L44.4978 35.9545V35.9407L44.5115 35.8992V35.8715H44.5253V35.83V35.8024H44.5391L44.5529 35.7747V35.747L44.5667 35.7055V35.6779L44.5805 35.6364V35.6087L44.5942 35.5672V35.5534L44.608 35.498V35.4842H44.6218L44.6356 35.415C44.6356 35.3735 44.6494 35.3182 44.6631 35.2628L44.6769 35.1937V35.1798L44.6907 35.1107V35.083H44.7045V35.0138V35H44.7183L44.732 34.9308V34.917L44.7458 34.834V34.8202L44.7596 34.7372C44.7734 34.668 44.7872 34.5988 44.7872 34.5435V34.5296L44.8009 34.4328V34.4051H44.8147L44.8285 34.3083V34.2806L44.8423 34.1838V34.17C44.8423 34.1285 44.8561 34.087 44.8561 34.0593V34.0316C44.8698 33.9486 44.8836 33.8518 44.8836 33.7549V33.7411C44.8974 33.6996 44.8974 33.6443 44.9112 33.5889V33.5613C44.9112 33.5059 44.9112 33.4644 44.925 33.4091V33.3676C44.925 33.3123 44.9388 33.2569 44.9388 33.2016V33.1877C44.9388 33.1047 44.9525 33.0217 44.9525 32.9526V32.9111C44.9663 32.8281 44.9663 32.7312 44.9663 32.6482V32.5929C44.9801 32.4684 44.9801 32.3439 44.9801 32.2194V32.164H44.9939C44.9939 31.7075 45.0077 31.2372 44.9939 30.7806Z" fill="url(#paint0_linear_343_9)"/>
<defs>
<linearGradient id="paint0_linear_343_9" x1="2.78369" y1="21" x2="45.3246" y2="21" gradientUnits="userSpaceOnUse">
<stop stop-color="#343A79"/>
<stop offset="0.0313725" stop-color="#343A79"/>
<stop offset="0.858824" stop-color="#CB2668"/>
<stop offset="1" stop-color="#CB2668"/>
</linearGradient>
</defs>
</svg>
